<?xml version="1.0" encoding="UTF-8"?><svg id="Layer_1" xmlns="http://www.w3.org/2000/svg" viewBox="0 0 1334.38 229.63"><defs><style>.cls-1{fill:#01366c;}.cls-2{fill:#023495;}.cls-3,.cls-4,.cls-5{fill:none;stroke-width:2px;}.cls-3,.cls-4,.cls-5,.cls-6,.cls-7,.cls-8{stroke-miterlimit:10;}.cls-3,.cls-6{stroke:#e3000f;}.cls-4,.cls-7{stroke:#016c37;}.cls-5,.cls-8{stroke:#f9b802;}.cls-6,.cls-9{fill:#e3000f;}.cls-6,.cls-7,.cls-8{stroke-width:.25px;}.cls-7{fill:#016c37;}.cls-10{fill:#00114b;}.cls-8{fill:#f9b802;}</style></defs><path class="cls-2" d="M1217.06,27.98c-.11.07-7.92,8.16-17.62,8.2.1-.09,3.65-9.31,17.62-8.2Z"/><path class="cls-2" d="M1204.79,41.26c-.53.13-8.26,4.55-12.97-.02.43-.34,1.66-1.78,3.87-2.39,2.47-.74,5.74-.8,9.1,2.41Z"/><path class="cls-2" d="M1193.52,49.8c-.17.09-7.3,6.35-13.25,2.51.11-.07,4.91-7.78,13.25-2.51Z"/><path class="cls-2" d="M1184.12,60.29c-.5.35-6.29,7.83-12.95,5.17.32-.57,1-2.53,2.89-3.96,3.04-2.45,6.37-2.67,10.06-1.21Z"/><path class="cls-2" d="M1176.87,72.27c-.12.14-4.69,9.17-12.14,7.81,1.55-6.21,6.32-8.91,12.14-7.81Z"/><path class="cls-2" d="M1172.12,85.36c-2.46,4.96-4.78,10.27-10.75,10.32.73-7.2,4.7-10.31,10.75-10.32Z"/><path class="cls-2" d="M1169.88,99.05c-.77,2.5-1.69,11.18-8.92,12.59,0-.11-.56-2.36.3-5.43.99-3.39,3.93-6.29,8.62-7.16Z"/><path class="cls-2" d="M1170.26,113c-.25,6.05-1.13,12.19-6.86,14.4-.02-.11-1.01-2.22-.67-5.56.43-3.14,2.23-6.82,7.53-8.84Z"/><path class="cls-2" d="M1172.96,126.61c.09,2.59,2.47,11.41-4.2,15.78-.05-.1-1.48-1.9-1.79-5.49-.2-3.24.97-7.32,5.99-10.29Z"/><path class="cls-2" d="M1178.04,139.22c.14.64,4.99,10.71-.92,16.68-.23-.33-1.87-1.5-3-5.12-.52-1.56-.57-3.52-.07-5.49.49-1.97,1.77-4.08,3.99-6.06Z"/><path class="cls-2" d="M1185.46,150.29c.16.42,7.29,9.64,2.81,16.9-6.56-5.74-6.92-11.24-2.81-16.9Z"/><path class="cls-2" d="M1195.02,159.38c.18.28,9.68,8.24,6.64,16.37-.39-.31-11.72-4.59-6.64-16.37Z"/><path class="cls-2" d="M1206.56,166.34c5.56,3.98,11.37,8.71,9.62,16-.11-.05-3.31-.75-5.76-3.02-3.86-3.46-4.86-7.9-3.86-12.98Z"/><path class="cls-2" d="M1197.29,28.45c-.11.11-9.43,6.29-5.57,12.67.1-.13,7.14-3.85,5.57-12.67Z"/><path class="cls-2" d="M1183.27,38.1c-.05.11-8.58,8.15-3.22,14.03.04-.11,6.69-5.32,3.22-14.03Z"/><path class="cls-2" d="M1171.3,50.29s-.46.61-1.07,1.61c-2.57,4.37-3.53,10.32.58,13.36,2.49-4.58,4.31-8.96.48-14.97Z"/><path class="cls-2" d="M1161.75,64.55c-.02.11-5.05,11.84,2.46,15.36,2.61-5.89,1.51-11.14-2.46-15.36Z"/><path class="cls-2" d="M1155.13,80.47c.02.11-3.08,12.94,5.58,15.14.78-5.45.43-10.79-5.58-15.14Z"/><path class="cls-2" d="M1151.56,97.4c.02.11-.34,13.71,8.6,14.29-.28-6.26-1.67-10.97-8.6-14.29Z"/><path class="cls-2" d="M1151.22,114.61c.05.11,1.8,14.07,11.28,13.01-1.42-6.28-3.7-10.94-11.28-13.01Z"/><path class="cls-2" d="M1153.82,131.71c.16.36.71,3,3.46,6.77,2.46,3.2,6.17,5.82,10.53,4.36-2.7-6.01-5.92-10.35-13.99-11.13Z"/><path class="cls-2" d="M1159.63,148.29c.1.11,7.81,13.5,16.56,8.34-3.88-5.27-8.26-9.2-16.56-8.34Z"/><path class="cls-2" d="M1168.86,163.53c.1.08,10.87,12.05,18.59,4.68-5.5-4.62-10.63-7.26-18.59-4.68Z"/><path class="cls-2" d="M1181.29,176.5c.11.05,13.47,9.35,19.7.52-.29-.05-8.87-6.95-19.7-.52Z"/><path class="cls-2" d="M1195.96,186.36c.11.01,14.54,7,19.66-2.56-.11-.04-2.04-1.32-6.3-1.99-4.31-.6-9.15.65-13.36,4.54Z"/><path class="cls-2" d="M1248.24,191.59c-1.6.41-3.09.76-4.44,1.1-1.28-.37-2.54-.75-3.81-1.12-26.41-7.87-49.85-17.32-64.46-34.6-1.52-1.8-2.95-3.66-4.26-5.64-1.73-2.56-3.29-5.28-4.65-8.18-1-2.15-1.93-4.41-2.72-6.76-.94-2.75-1.73-5.65-2.37-8.72-.39-1.9-.73-3.87-.99-5.9-.42-3.22-.68-6.59-.76-10.14-.03-1.25-.03-2.51-.02-3.79.03-3.9.29-8,.76-12.3.03-.49.1-.96.15-1.44.08-.94.19-1.86.32-2.79.55-4.03,1.51-7.92,2.75-11.65v-.02c.55-1.62,1.17-3.22,1.81-4.78,1.44-3.45,3.13-6.74,4.97-9.83.57-.92,1.13-1.85,1.72-2.74,2.41-3.74,5.04-7.18,7.73-10.27.79-.94,1.6-1.85,2.43-2.72,3.11-3.35,6.22-6.25,9.07-8.6,1.39-1.18,2.72-2.2,3.97-3.11,1.93-1.41,3.64-2.48,5.02-3.21,0,0,0-.02.02-.02,1.98-1.09,3.27-1.43,3.52-.96.29.57-.03.62-3.43,2.71-1.02.62-2.3,1.43-3.94,2.49-.37.23-.78.49-1.18.76-1.05.76-2.09,1.54-3.08,2.33-2.79,2.22-5.33,4.52-7.65,6.87-1.34,1.36-2.59,2.72-3.77,4.11-2.33,2.72-4.41,5.51-6.22,8.29-1.04,1.57-1.99,3.14-2.87,4.71-1.73,3.09-3.19,6.16-4.42,9.15-.75,1.81-1.39,3.58-1.98,5.31-1.26,3.76-2.17,7.31-2.82,10.55-.36,1.75-.63,3.39-.84,4.92-.75,5.28-.76,9.23-.65,11,.06,1.25.21,1.43.21.28.05,1.54.13,3.06.24,4.55.24,3.42.65,6.69,1.2,9.82.36,1.99.76,3.92,1.25,5.8.79,3.26,1.77,6.32,2.88,9.23.75,1.94,1.56,3.81,2.45,5.61,1.34,2.82,2.85,5.48,4.49,7.95,1.22,1.86,2.49,3.64,3.84,5.33,1.99,2.51,4.11,4.83,6.33,6.98,1.51,1.47,3.08,2.87,4.67,4.18,2.51,2.06,5.09,3.95,7.73,5.67,1.77,1.15,3.55,2.22,5.35,3.22,3.13,1.77,6.29,3.32,9.41,4.7,1.7.76,3.37,1.46,5.04,2.11,11.26,4.41,21.64,6.71,28.14,8.41,1.51.39,2.8.76,3.86,1.1Z"/><path class="cls-2" d="M1268.77,27.33c.1.04,12.45-1.45,17.78,8.28-6.97-.17-12.85-3.6-17.78-8.28Z"/><path class="cls-2" d="M1288.34,28.46c.08.11,9.52,6.16,5.57,12.68-.1-.11-7.13-3.94-5.57-12.68Z"/><path class="cls-2" d="M1302.37,38.13c.05.11,8.58,8.18,3.22,14.04-.07-.11-6.69-5.34-3.22-14.04Z"/><path class="cls-2" d="M1314.36,50.33c.03.11,7.14,10.07.48,14.98-2.5-4.61-4.32-8.94-.48-14.98Z"/><path class="cls-2" d="M1323.9,64.62c.02.12,5.04,11.87-2.47,15.37-1.95-5.46-2.34-10.26,2.47-15.37Z"/><path class="cls-2" d="M1330.52,80.55c0,.11,3.21,12.92-5.59,15.14.01-.11-2.63-9.21,5.59-15.14Z"/><path class="cls-2" d="M1334.07,97.5c-.02.11.32,13.72-8.63,14.29.11-.42-1.31-9.57,8.63-14.29Z"/><path class="cls-2" d="M1334.38,114.73s-.1.88-.38,2.19c-1.33,5.75-5.03,11.49-10.92,10.82.15-.34.39-10.04,11.3-13.01Z"/><path class="cls-2" d="M1331.76,131.85c-.08.11-4.55,14.31-14.02,11.12.24-.34,2.73-10.05,14.02-11.12Z"/><path class="cls-2" d="M1325.91,148.43s-.44.86-1.26,2.09c-.89,1.19-2.17,2.74-3.7,4.13-3.56,2.95-7.65,4.46-11.63,2.1.1-.1,5.31-9.48,16.58-8.32Z"/><path class="cls-2" d="M1316.65,163.67c-4.9,5.58-13.23,9.81-18.62,4.65.21-.12,7.26-8.36,18.62-4.65Z"/><path class="cls-2" d="M1304.18,176.62c-.63.36-8.35,5.72-14.26,4.11-2.09-.51-4.01-1.61-5.45-3.64.1-.05,2.38-1.72,5.87-2.64,4.88-1.28,9.48-.39,13.84,2.16Z"/><path class="cls-2" d="M1289.53,186.42c-1.11.42-4.2,1.97-7.79,2.36-4.37.48-9.24-.14-11.79-4.63.11-.02,10.12-6.5,19.57,2.26Z"/><path class="cls-2" d="M1280.85,41.27c.49.11,8.26,4.55,12.98-.01-.1-.04-6.17-6.49-12.98.01Z"/><path class="cls-2" d="M1292.12,49.82c.16.08,7.31,6.36,13.26,2.53-.11-.03-5.06-7.69-13.26-2.53Z"/><path class="cls-2" d="M1301.53,60.32c.49.35,6.29,7.84,12.95,5.19-.34-.59-1.03-2.56-2.89-3.97-3.03-2.44-6.35-2.68-10.07-1.22Z"/><path class="cls-2" d="M1308.77,72.32c3.04,4.45,6.4,8.87,12.14,7.83-.09-.11-1.88-9.75-12.14-7.83Z"/><path class="cls-2" d="M1313.52,85.43c2.18,5.07,5.1,10.29,10.74,10.34-.05-.11.45-10.3-10.74-10.34Z"/><path class="cls-2" d="M1315.74,99.13c1.21,5.79,3.07,11.48,8.9,12.62-.03-.11,2.03-10.55-8.9-12.62Z"/><path class="cls-2" d="M1315.35,113.1c.23,5.8.99,12.15,6.84,14.43,2.08-5.78-.04-11.83-6.84-14.43Z"/><path class="cls-2" d="M1312.62,126.71c-.85,6.16-1.13,12.32,4.17,15.8.01-.11,6.17-9.66-4.17-15.8Z"/><path class="cls-2" d="M1307.52,139.33c-.15.64-5.03,10.7.88,16.7.04-.11,8.62-8.16-.88-16.7Z"/><path class="cls-2" d="M1300.07,150.4c-.11.4-7.38,9.51-2.86,16.9.07-.11,10.44-6.42,2.86-16.9Z"/><path class="cls-2" d="M1290.49,159.47c-.18.33-9.81,8.12-6.7,16.36.11-.07,2.85-.88,5.22-3.56,3.25-3.68,3.45-8.27,1.47-12.8Z"/><path class="cls-2" d="M1278.85,166.45c-.31.29-12,6.79-9.49,16.26.97-.62,11.98-3.58,9.49-16.26Z"/><path class="cls-2" d="M1326.32,105.49c.03,2.04-.02,4.11-.15,6.22-.21,3.29-.62,6.66-1.26,10.12-.34,1.94-.76,3.94-1.26,5.95-.24.97-.5,1.94-.78,2.93-.68,2.41-1.44,4.73-2.27,6.97,0,0,0,.02-.02.02-.7,1.88-1.46,3.69-2.28,5.44-1.51,3.26-3.22,6.32-5.14,9.19-1.04,1.62-2.17,3.18-3.37,4.68-2.2,2.82-4.63,5.44-7.26,7.89-1.36,1.26-2.77,2.49-4.23,3.68-2.67,2.15-5.51,4.16-8.52,6.04-1.6,1.02-3.27,1.99-4.97,2.93-2.88,1.6-5.9,3.11-9.04,4.52-1.81.84-3.69,1.65-5.6,2.43-.11.05-.23.1-.34.15-7.94,3.34-15.57,5.44-21.59,6.95-1.6.41-3.09.76-4.44,1.1-1.28-.37-2.54-.75-3.81-1.12,1.34-.34,2.82-.7,4.39-1.09,6.92-1.75,15.79-4.2,24.98-7.78l.02-.02c9.57-3.73,19.49-8.7,27.81-15.42.83-.65,1.64-1.34,2.43-2.04.15-.13.28-.24.42-.37,3.06-2.74,5.85-5.7,8.31-8.88.81-1.02,1.59-2.06,2.32-3.13,2.3-3.29,4.31-6.77,6.03-10.4.53-1.1,1.04-2.22,1.51-3.35,0-.02.02-.03.02-.05,1.56-3.74,2.82-7.61,3.81-11.6.34-1.38.65-2.75.92-4.13v-.03c.75-3.79,1.25-7.66,1.51-11.6.05-.68.08-1.36.11-2.06.03-.71.03-1.43.03-2.14.03-4.1-.21-8-.7-11.73-.19-1.72-.45-3.39-.76-5.02-.7-3.71-1.6-7.21-2.69-10.53-.5-1.54-1.04-3.03-1.6-4.49-1.43-3.6-3.05-6.95-4.8-10.06-.79-1.43-1.62-2.8-2.46-4.11-.02-.02-.03-.02-.03-.02-2.09-3.29-4.33-6.25-6.59-8.94-.92-1.13-1.88-2.2-2.82-3.24-2.93-3.14-5.82-5.8-8.46-7.99-.79-.68-1.57-1.3-2.3-1.88-2.07-1.6-3.92-2.9-5.43-3.9-2.56-1.68-4.15-2.49-4.15-2.51.23-.42,1.7.05,4,1.36,1.15.65,2.51,1.52,4.02,2.61,1.36.97,2.87,2.12,4.44,3.45,2.67,2.24,5.57,4.94,8.52,8.13.97,1.07,1.96,2.19,2.95,3.35,2.64,3.14,5.25,6.66,7.68,10.53.55.86,1.09,1.75,1.6,2.66,1.91,3.29,3.68,6.82,5.22,10.56.55,1.33,1.07,2.69,1.56,4.07,1.15,3.29,2.12,6.72,2.87,10.32.37,1.77.68,3.56.92,5.39.44,3.21.7,6.54.73,9.98Z"/><polygon class="cls-2" points="1243.77 193.43 1235.76 198.27 1237.89 189.15 1230.81 183.03 1240.14 182.23 1243.77 173.61 1247.41 182.23 1256.74 183.03 1249.65 189.15 1251.79 198.27 1243.77 193.43"/><polygon class="cls-2" points="1243.71 146.19 1246.04 151.15 1251.47 151.83 1247.47 155.57 1248.51 160.94 1243.71 158.3 1238.92 160.94 1239.96 155.57 1235.96 151.83 1241.39 151.15 1243.71 146.19"/><polygon class="cls-2" points="1259.96 146.19 1261.6 149.7 1265.44 150.17 1262.61 152.82 1263.35 156.62 1259.96 154.75 1256.57 156.62 1257.3 152.82 1254.48 150.17 1258.32 149.7 1259.96 146.19"/><polygon class="cls-2" points="1227.47 146.19 1229.11 149.7 1232.95 150.17 1230.12 152.82 1230.86 156.62 1227.47 154.75 1224.08 156.62 1224.82 152.82 1221.99 150.17 1225.83 149.7 1227.47 146.19"/><path class="cls-2" d="M1212.24,68.04c1.8,0,9.37-9.82,8.26-11.17-1.8-2.2-14.12,8.16-14.87,14.47-.4,3.51,13.12,3.35,12.52,8.26-.35,3.21-8.86,10.42-15.67,10.42-5.46,0-3.96-9.36-1.6-9.36.35,0-.45.65-.55,1.9-.05.85.8,1.65,1.75,1.65,5.56,0,10.82-3.66,10.97-5.16.1-1.05-13.57-1.9-12.72-9.16.8-6.76,11.07-17.63,17.63-17.63,3.36,0,5.61,2.45,5.61,5.81,0,4.91-5.61,13.52-8.36,13.52-2.05,0-5.36-3.56-2.96-3.56Z"/><path class="cls-2" d="M1230.37,66.39c0,.35-.2.2-.4.4-1.2,1.2-5.16,10.97-5.16,16.28,0,1.3.4,1.3.6,1.3,1.95,0,7.56-13.32,8.46-13.32,1.35,0-4.56,17.08-9.57,17.08-2.75,0-4.86-2.05-4.86-6.51,0-5.56,4.06-17.43,6.21-17.43,2.7,0,4.71,1.5,4.71,2.2ZM1231.02,50.67c.9-.9,6.31.5,5.01,1.8-.8.8-3.86,7.01-4.11,7.21-.7.55-3.96-.3-3.76-2.1.3-2.45,2.2-6.26,2.85-6.91Z"/><path class="cls-2" d="M1235.48,81.52c2.85-6.01,9.51-17.33,12.27-17.33s4.71,1.45,4.71,2.2c0,.3-.15.15-.4.4-1.15,1.2-5.11,10.97-5.11,16.28,0,1.25.4,1.3.6,1.3,1.95,0,7.51-13.32,8.46-13.32,1.35,0-4.61,17.08-9.56,17.08-2.75,0-4.86-2.1-4.86-6.56,0-2.65.95-6.81,2.15-10.42-4.81,5.96-8.26,15.62-9.36,16.73-.85.85-4.76-.9-4.76-3.71,0-4.16,4.36-16.08,4.36-18.48,0-1.1.25-1.5,1.35-1.5s4.66.7,4.66,2.55c0,1.1-3.15,8.76-4.51,14.77Z"/><path class="cls-2" d="M1265.33,67.79c-2.1,0-6.26,5.56-7.06,12.27-.3,2.75.6,4.86,2.15,4.86,5.61,0,9.42-13.87,10.97-13.87.8,0-3.46,17.33-11.27,17.33-4.76,0-7.56-3.26-7.56-7.91,0-7.01,5.16-16.58,10.62-16.58,3,0,5.16,2.9,5.16,5.86,0,1.65-2.95,3.35-3.76,3.35-.9,0,2.8-5.31.75-5.31Z"/><path class="cls-2" d="M1275.79,84.92c5.61,0,9.42-13.87,10.97-13.87.8,0-3.46,17.33-11.27,17.33-4.76,0-7.56-3.26-7.56-7.91,0-6.01,4.56-16.58,10.62-16.58,3.71,0,5.56,4.01,5.16,7.16-.5,4.31-3.66,7.41-8.06,7.41-.5,0-1.15-.15-1.7-.4-.1.65-.25,1.3-.3,2-.3,2.75.6,4.86,2.15,4.86ZM1280.7,67.79c-1.5,0-4.26,3.1-5.91,7.26l-.5,1.5c1.7-.05,6.51-4.06,6.91-7.31.1-.8-.05-1.45-.5-1.45Z"/><path class="cls-2" d="M1187.23,135.09h.04s.12-.06.24-.17l.09-.13s.08-.11.14-.24c.06-.13.12-.22.16-.26.03-.04.09-.1.17-.17.09-.07.14-.13.17-.17l.41-.39.3-.19c.26-.16.46-.3.58-.43l.65-.37s.08-.05.16-.12c.08-.06.15-.11.21-.14h.13l.04-.09c.09-.06.22-.12.39-.17.01,0,.05-.03.11-.09.16-.1.54-.28,1.15-.54l.22-.09c.29-.14.82-.3,1.6-.48l.76-.15h.39c.22,0,.38-.01.5-.04l.65-.13c.19-.03.45-.05.79-.05.34,0,.57-.02.68-.03.22,0,.47-.03.76-.09.07,0,.18,0,.34-.02.15-.01.26-.02.31-.02.07,0,.18,0,.31.02.14.01.24.02.31.02.1,0,.22,0,.35-.02s.27-.03.43-.05c.16-.02.28-.04.37-.05.04,0,.13-.01.26-.04.13-.03.22-.04.28-.04h.63l.48-.13h.39s.05,0,.1-.02.08-.02.1-.02l1.02-.28c.1-.03.25-.06.46-.09.2-.03.32-.04.35-.04.46-.13.73-.2.8-.22.17-.06.43-.12.78-.17l.41-.13c.14,0,.26-.01.35-.04.16-.16.33-.28.5-.37.01-.06.06-.12.14-.2.08-.07.13-.14.16-.2.17-.17.27-.27.3-.28.04-.07.15-.18.31-.31.17-.14.27-.26.31-.38.33-.4.53-.67.58-.8.01-.01.03-.05.04-.11.01-.06.03-.09.04-.11l.09-.09s.05-.08.16-.16.2-.12.27-.12c.14.04.24.17.28.37.06.03.13.13.22.3-.13.32-.25.77-.35,1.37l-.15.45c-.03.2-.04.5-.04.89,0,.27-.01.48-.04.63-.03.06-.04.14-.04.26l-.13.71c-.03.06-.04.14-.04.26,0,.01-.02.04-.05.08s-.06.07-.08.1v.54s-.01.11-.04.2c-.03.09-.04.15-.04.19l-.09,1.02c-.01.13-.04.3-.09.5-.04.2-.07.35-.09.43-.04.39-.07.73-.07,1.02-.03.12-.04.28-.04.5-.06.23-.09.38-.09.43s0,.16.02.31c.01.15.02.26.02.31,0,.07-.01.18-.04.32-.03.14-.04.26-.04.35v.09s0,.12.02.22c.01.1.02.17.02.22,0,.1-.03.27-.09.5-.09.01-.21.02-.37.02s-.3,0-.43.02-.25.04-.35.09c-.06.03-.14.04-.26.04h-.33c-.12,0-.2.01-.26.04-.06,0-.14,0-.24.02-.1.01-.18.02-.24.02-.19,0-.32-.01-.41-.04h-1.32c-.42-.03-.98-.04-1.69-.04-.07,0-.18,0-.33.02s-.26.02-.35.02h-.67c-.12.03-.29.04-.52.04-.25,0-.44-.01-.58-.04-.06,0-.15,0-.27-.02-.12-.01-.22-.02-.29-.02-.13,0-.28.03-.46.09-.17-.06-.3-.09-.39-.09-.06,0-.15,0-.28.02s-.23.02-.3.02h-.22l-.54-.13c-.4-.06-.76-.09-1.06-.09l-1.28-.17s-.13-.03-.29-.08c-.17-.05-.29-.08-.38-.08l-1.02-.43h-.22c-.16,0-.27-.01-.33-.04-.09-.01-.2-.07-.35-.17-.14-.1-.23-.16-.26-.17l-.63-.11c-.06,0-.12-.03-.17-.09-.16,0-.35-.03-.58-.09-.06-.06-.12-.09-.17-.09-.09-.04-.22-.08-.4-.12s-.3-.07-.36-.1c-.17-.12-.43-.17-.76-.17h-.13c-.12.03-.29.1-.52.22-.04.03-.13.06-.27.11-.14.04-.23.08-.27.11-.1.04-.22.13-.37.27-.14.14-.25.23-.3.27-.26.17-.48.35-.65.52v.04c-.12.35-.25.58-.41.71-.09.03-.2.04-.35.04-.07,0-.19,0-.36-.02-.17-.01-.29-.02-.36-.02s-.19.01-.35.04c-.16.03-.28.04-.37.04-.12,0-.2-.01-.26-.04-.09-.06-.16-.25-.22-.56,0-.01,0-.03-.02-.04s-.02-.03-.02-.04c-.06-.35-.09-.61-.09-.8v-.89c.01-.09.05-.23.11-.44s.09-.37.11-.49c.03-.12.06-.3.09-.54.03-.25.04-.38.04-.39.03-.26.1-.58.22-.97.01-.07.05-.21.1-.41.05-.2.09-.35.12-.43.03-.07.1-.18.21-.31.11-.14.18-.24.21-.31.03-.06.05-.12.08-.18.02-.06.05-.15.08-.25.03-.1.05-.18.07-.24,0-.01.02-.05.08-.12.05-.06.08-.13.1-.18.26-.55.57-1.03.93-1.43.04-.06.17-.25.37-.56.09-.22.27-.44.56-.67.06-.06.19-.22.39-.49s.37-.46.5-.57c.12-.12.19-.2.22-.26.13-.13.21-.22.24-.28.06,0,.1-.01.13-.04,0-.03.01-.04.04-.04h.04l.35-.35c.1-.04.25-.14.46-.3l.43-.33.09-.17c.07,0,.12-.01.15-.04l.22-.17s.09-.07.17-.11c.09-.04.14-.08.17-.11l.26-.15.04-.09.95-.52.13-.13s.04,0,.09-.02c.04-.01.07-.02.09-.02l.3-.24h.04s.04-.01.04-.04l.17-.17.32-.17c.06-.06.1-.09.13-.09l.17-.09s.13-.12.26-.33c.1-.07.29-.2.55-.37.27-.17.47-.32.62-.43l.26-.17s.13-.09.3-.17l.41-.43.43-.41.33-.35s.05-.07.1-.13c.05-.06.1-.12.14-.18.04-.07.08-.13.11-.18l.48-.52.28-.41s.01-.03.04-.04c.03-.01.04-.03.04-.04.09-.09.19-.25.3-.48.03-.03.06-.08.09-.14.03-.07.06-.11.09-.14l.19-.22s.04-.13.09-.27c.04-.14.09-.24.13-.31.09-.14.14-.25.17-.3l.09-.26.09-.04s0-.07.02-.13.02-.1.02-.13c.06-.1.12-.31.17-.63.1-.14.15-.31.15-.5v-.17c.14-.33.26-.7.35-1.1l.09-1.15c.14-1.2.22-2.04.22-2.53,0-.39-.01-.69-.04-.89,0-.13-.03-.31-.09-.54l-.09-.61c0-.1-.03-.24-.09-.41l-.04-.09-.09-.52-.17-.37c-.26-.65-.51-1.18-.76-1.58-.13-.13-.2-.21-.22-.24-.03-.03-.06-.08-.11-.14-.04-.06-.07-.1-.09-.12l-.3-.13c-.14-.07-.41-.24-.8-.5-.14-.03-.38-.04-.71-.04-.2,0-.36.01-.48.04-.06.03-.13.04-.22.04-.06,0-.15,0-.28-.02-.13-.01-.22-.02-.26-.02l-.3.13-.37.28c-.14.14-.26.23-.35.26-.22.3-.46.58-.71.84l-.13.35s-.06.08-.09.14c-.03.06-.06.11-.09.14-.03.04-.09.12-.18.24s-.16.21-.18.28c-.03.06-.04.17-.04.33-.06.06-.09.1-.09.13-.06.32-.12.57-.17.76l-.13.69c-.06.06-.09.1-.09.13l.04.15c0,.09-.03.19-.09.3-.06.29-.09.51-.09.67-.03.33-.04.84-.04,1.54v.67c0,.3.01.51.04.63,0,.06.03.17.09.35.01.04.05.19.12.43.07.25.14.41.23.5v.13c0,.26.11.53.33.8,0,.01,0,.03.02.04.01.01.02.03.02.04l.13.22c.03.06.06.11.1.15.04.04.08.09.13.15s.09.11.12.15l.09.13c.09.17.22.35.41.54.03.04.07.1.12.17s.09.13.12.16c.03.04.05.09.08.15.02.06.03.13.03.21v.24c-.03.1-.13.22-.3.35h-.04s-.04.06-.04.09c-.1,0-.17.01-.2.04-.03.01-.06.04-.09.09-.03.04-.06.07-.09.09-.06,0-.12.01-.17.04-.16.16-.4.24-.71.24h-.13c-.06,0-.12.02-.18.07-.07.04-.12.06-.16.06-.17,0-.44.03-.8.09-.36.06-.64.09-.84.09-.06,0-.14,0-.26-.02-.12-.01-.21-.02-.28-.02-.39-.04-.7-.1-.93-.17-.62-.13-1.15-.27-1.58-.41-.1-.06-.25-.12-.46-.17l-.48-.22-.13-.13c-.06-.04-.16-.1-.3-.17s-.27-.15-.39-.23-.2-.16-.26-.23c-.16-.13-.35-.38-.56-.76-.32-.49-.48-.74-.5-.76-.04-.1-.1-.3-.17-.61l-.35-1.69v-.3c0-.32.06-.84.17-1.56,0-.17.01-.29.04-.35l.13-.37c.09-.52.14-.8.17-.84,0-.01,0-.04.02-.06.01-.03.02-.05.02-.07.29-.65.54-1.13.76-1.45l.13-.11s0-.04.02-.09c.01-.04.02-.07.02-.09.13-.07.21-.13.24-.17l.35-.54.89-.82s.07-.11.15-.24c.09-.13.17-.23.24-.3.01,0,.04,0,.08-.02.04-.01.06-.02.08-.02l.3-.35c.38-.22.69-.41.93-.58.01,0,.04,0,.09-.02.04-.01.07-.02.09-.02v-.09h.09s.1-.06.18-.14c.08-.08.14-.13.18-.14l.13-.09s.05-.06.1-.09c.05-.03.11-.06.18-.1.07-.04.12-.06.15-.08.06-.03.16-.07.3-.12s.27-.1.37-.15c.1-.05.19-.1.26-.16.14,0,.4-.11.76-.32.09,0,.16-.01.22-.04l.13-.13c.06-.03.15-.04.28-.04.12,0,.2-.01.26-.04l.39-.13c.12-.03.3-.04.54-.04l.39-.13c.12-.03.3-.04.54-.04l.39-.19.89-.22h1.02c.07-.01.23-.02.46-.03s.42-.03.53-.05c.01,0,.04,0,.06-.02.03-.01.05-.02.07-.02.04,0,.11.02.19.06.09.04.15.06.2.06h.22c.12.06.19.09.24.09.03,0,.09,0,.17-.02.09-.01.14-.02.17-.02.04.01.13.04.27.08.14.04.24.05.31.05h.09c.06,0,.14-.01.25-.04.11-.03.18-.04.23-.04.13,0,.28.03.46.09h.48c.07,0,.19.03.37.09l.39.11c.23.04.47.12.71.22l.71.17c.19.14.35.23.48.26.07.04.21.1.42.18.21.08.35.14.42.18.03,0,.07.03.13.09.03.03.06.04.09.04h.09l.63.3c.29.14.53.31.71.5.01,0,.04.01.07.04.03.03.05.04.06.04.06.04.2.1.43.17l.04.09.37.13s.05.06.11.15c.06.09.11.14.15.17l.5.43c.07.1.27.35.61.76.09.09.15.17.19.26.33.39.52.63.56.71.06.12.1.19.13.22v.04l.28.5.35.84s.04.05.08.1c.04.05.05.09.05.12.03.06.06.17.09.33s.06.27.09.35c0,.01,0,.04.02.06.01.03.02.05.02.07v.17c.06.12.09.22.09.3,0,.04,0,.12-.02.23-.01.11-.02.18-.02.23,0,.09.02.23.07.43s.07.33.09.37c0,.09-.03.23-.08.43s-.08.37-.08.5c0,.03,0,.07.02.13.01.06.02.1.02.13s.01.05.03.08c.02.02.03.04.03.05l-.15.35v.5s-.03.16-.09.39l-.13.37c-.07.38-.13.61-.17.71-.03.09-.1.22-.22.39-.07.23-.13.38-.17.43,0,.01-.02.04-.07.09s-.07.08-.09.11c-.03.04-.09.17-.17.38s-.17.36-.26.47l-.04.04s-.12.14-.22.3c-.1.16-.17.26-.2.3-.12.16-.3.37-.54.64-.25.27-.42.46-.52.57l-.17.17c-.45.52-.76.84-.93.98-.03.03-.07.04-.13.04l-.09.11c-.06.09-.1.14-.13.15-.03.01-.07.05-.13.1s-.11.09-.15.12c-.14.16-.35.31-.61.46l-.13.17h-.11l-.17.17s-.04,0-.07.02-.05.02-.06.02l-.17.13s-.04,0-.06.02c-.03.01-.05.02-.07.02,0,.04-.06.09-.17.15l-1.08.56-.26.09-.48.46c-.09.07-.27.17-.54.3-.07.04-.17.11-.28.2-.12.09-.2.14-.26.17-.06.03-.16.07-.3.11s-.25.08-.3.11c-.06.03-.14.1-.26.22l-.32.09s-.08.05-.15.1c-.07.05-.14.09-.21.12-.07.03-.13.04-.21.04l-1.26.54c-.51.22-.9.43-1.19.63l-.58.26c-.06.03-.16.07-.3.11-.14.04-.25.08-.3.11l-1.17.58c-.38.14-.58.23-.61.26l-.54.3s-.16.05-.34.12c-.18.06-.32.12-.42.16-.03,0-.1.03-.22.09-.06.04-.2.1-.43.17-.03.01-.1.05-.21.12-.11.07-.21.11-.29.14-.09.03-.19.04-.3.04-.07.07-.17.14-.3.22-.13.07-.21.12-.24.15l-.17.13s-.03.04-.09.04l-.26.17s-.11.06-.21.09c-.09.03-.16.06-.21.09l-.22.17s-.03.04-.04.08c-.01.04-.03.07-.05.09s-.05.03-.08.03c-.14.09-.34.25-.58.49-.25.24-.44.4-.58.49-.36.51-.58.82-.65.93-.04.04-.09.12-.14.23s-.1.19-.14.25c-.03.06-.08.13-.15.23s-.12.17-.15.23c-.03.04-.06.13-.1.25-.04.12-.08.21-.12.27,0,.01-.05.13-.16.35-.11.22-.21.37-.29.45,0,.19-.03.37-.09.54-.09.17-.13.27-.13.3,0,.01,0,.03.02.04s.02.03.02.04Z"/><path class="cls-2" d="M1238.43,133.85c-.04.07-.14.19-.3.37-.16.17-.27.32-.33.43l-.09.17-.09.09c-.06.07-.19.22-.4.45-.21.23-.36.42-.44.56-.1.03-.24.11-.41.25-.17.14-.27.22-.3.25,0,.03-.01.06-.04.09s-.06.04-.09.04h-.09l-.41.35-.39.41-.41.17-.35.26c-.06.03-.14.06-.25.09s-.17.04-.18.04l-.32.22s-.12.05-.26.12c-.14.06-.26.12-.35.16-.06.06-.11.09-.15.09-.03.01-.13.04-.31.06-.18.03-.31.08-.38.15-.14,0-.48.1-1.02.3l-.5.15c-.07.01-.16.04-.25.09-.09.04-.16.07-.18.09-.09.01-.27.03-.55.03s-.49.03-.62.05c-.09.03-.25.04-.48.04-.16,0-.28-.01-.37-.04-.4.06-.71.09-.93.09h-.35c-.16,0-.44-.06-.84-.17l-.43-.09-.2-.13h-.09c-.06,0-.09-.02-.09-.06l-.8-.26-.17-.13h-.22c-.12-.04-.27-.12-.47-.22-.2-.1-.35-.17-.47-.22-.14-.06-.39-.13-.74-.23s-.59-.17-.74-.23c-.01,0-.04-.01-.08-.04-.04-.03-.07-.04-.1-.04-.03-.03-.1-.04-.22-.04-.03-.01-.07-.05-.11-.1-.04-.05-.08-.08-.11-.08h-.13l-.37-.17c-.14-.06-.3-.15-.48-.28-.2-.1-.33-.17-.37-.22l-.3-.22-.09-.04-.17-.13-.37-.24s-.07-.06-.12-.09c-.05-.03-.08-.06-.1-.09-.07-.04-.13-.1-.17-.17-.1-.09-.26-.2-.49-.34-.22-.14-.37-.23-.44-.29l-.41-.35-.43-.46-.17-.3c-.14-.22-.22-.35-.24-.39-.04-.07-.1-.2-.17-.38-.07-.18-.13-.31-.17-.38-.06-.1-.15-.24-.28-.42s-.21-.29-.24-.34c-.01,0-.05-.03-.11-.09l-.22-.26s-.03-.05-.04-.11c-.01-.06-.03-.1-.04-.13-.01-.01-.03-.03-.05-.04s-.04-.03-.05-.04c-.01-.01-.02-.03-.02-.04-.06-.09-.16-.3-.3-.65-.03-.07-.09-.18-.18-.31-.09-.14-.16-.24-.18-.31l-.09-.26s-.03-.08-.09-.19c-.01-.01-.03-.05-.04-.11s-.03-.09-.04-.11c0-.03-.04-.09-.13-.17l-.09-.26c-.04-.25-.11-.47-.2-.67-.03-.06-.12-.52-.26-1.39,0-.03,0-.06-.02-.11-.01-.04-.02-.08-.02-.11-.03-.06-.04-.16-.04-.3v-.35s-.01-.1-.04-.18-.04-.14-.04-.18c0-.01-.01-.13-.04-.36-.03-.22-.06-.39-.09-.49,0-.03-.01-.08-.04-.14s-.04-.12-.04-.16c-.03-.03-.04-.1-.04-.22v-.28c0-.1,0-.27-.02-.5-.01-.23-.02-.4-.02-.52-.06-.17-.09-.32-.09-.43,0-.06,0-.15.02-.27.01-.12.02-.21.02-.27s0-.14-.02-.24c-.01-.1-.02-.18-.02-.24,0-.12-.02-.29-.05-.51s-.05-.39-.05-.51c.07-.9.12-1.42.15-1.56l.09-.97.13-.93c.06-.12.09-.19.09-.22v-.28l.17-.89.13-.43s0-.09.02-.2c.01-.1.02-.17.02-.22v-.09c.09-.12.2-.36.33-.74.17-.29.26-.54.26-.76.12-.19.25-.47.39-.83s.25-.62.33-.77l.09-.09s.01-.06.04-.09c0-.03,0-.07.02-.11s.02-.08.02-.11c.13-.19.2-.31.22-.37.06-.09.12-.22.17-.39l.28-.46c.32-.52.48-.79.48-.8l.22-.35s.08-.09.12-.14c.04-.05.08-.11.13-.18.05-.07.09-.13.12-.17l.13-.13c.04-.13.12-.25.22-.35l.04-.09.04-.09s.04-.06.08-.09c.04-.03.05-.06.05-.09l.11-.2c.12-.12.2-.19.26-.22,0-.03.03-.04.09-.04l.13-.17.39-.37c.14-.19.33-.35.54-.48,0-.01.02-.03.06-.04.01-.01.03-.02.03-.02,0,0,.02,0,.03-.02.03-.01.06-.05.11-.11.04-.06.08-.09.11-.11l.32-.19c.09-.06.18-.17.29-.34.11-.17.18-.27.23-.31.06-.04.17-.1.33-.16.17-.07.28-.12.34-.16.12-.12.2-.19.26-.22.42-.17.66-.27.71-.3.12-.06.2-.12.26-.17.1,0,.17-.01.2-.04l.04-.06s.06-.07.09-.09c.01,0,.04,0,.09-.02.04-.01.07-.02.09-.02.06-.06.1-.09.13-.09l.45-.09.22-.09c.26-.09,1.16-.31,2.71-.67.01,0,.04,0,.06-.02s.05-.02.07-.02c.01,0,.4-.04,1.15-.13h.97c.09.01.45.05,1.09.1.64.05,1.12.1,1.44.16.16.03.41.09.75.18s.6.16.77.18c.85.22,1.32.35,1.41.39.23.07.63.27,1.19.58l1.02.52.28.24.09.09c.61.43.95.69,1.02.76l.58.56c.25.2.46.41.65.63l.13.17.28.35.43.54.22.22.19.33.09.09.09.17.3.48.67,1.26.52,1.32s.01.05.03.11c.02.06.03.09.03.11l.13.2.13.48c.16.49.25.77.26.84.03.06.04.13.04.22l.09.19c.06.16.12.46.17.89l.11.93c.12.35.17.62.17.82,0,.09,0,.22.02.4.01.18.02.31.02.4s0,.22-.02.39c-.01.17-.02.3-.02.37v3.01s-.01.18-.04.47c-.03.28-.06.5-.09.66,0,.03,0,.08-.02.14-.01.07-.02.12-.02.16,0,.06-.01.22-.03.5s-.05.48-.08.61c-.06.17-.09.34-.09.5-.06.12-.09.19-.09.22v.3s-.03.1-.09.22c0,.13-.01.22-.04.28,0,.09-.03.25-.09.48-.01.06-.05.24-.1.54-.05.3-.11.54-.16.71-.1.39-.16.61-.17.65l-.15.5-.09.43c-.01.07-.04.16-.09.26-.04.1-.07.17-.09.19-.03.04-.06.12-.09.22-.03.1-.06.17-.09.22,0,.03-.01.07-.04.12-.03.05-.04.09-.04.12-.01.04-.06.27-.13.69l-.09.13c0,.1-.01.15-.04.15-.01.04-.05.11-.12.2-.06.09-.1.15-.12.19l-.13.17-.09.17-.17.46-.22.22-.04.04v.04c-.03.06-.1.18-.21.37-.11.19-.21.33-.29.43-.06,0-.09.01-.09.04l-.04.09v.04l-.04.04s-.04.07-.04.13c-.09.09-.13.14-.13.15l-.09.22ZM1225.95,104.44c-.17.17-.32.29-.43.35-.01.04-.07.12-.16.23-.09.11-.15.17-.16.18l-.09.09-.35.8c-.09.12-.14.25-.17.39l-.11.22s-.01.05-.04.1c-.03.05-.04.08-.04.1-.03.06-.04.13-.04.22v.17l-.13.3v.37l-.13.3-.13.71c-.01.1-.05.24-.11.41l-.07.26c-.03.06-.04.14-.04.26v.22c0,.25-.01.43-.04.54,0,.12-.01.29-.04.52-.03.23-.04.38-.04.45,0,.16,0,.38.02.65.01.27.02.47.02.58,0,.03,0,.07.02.12.01.05.02.08.02.1,0,.03,0,.07-.02.11-.01.04-.02.07-.02.09,0,.19.01.46.04.82.03.36.04.64.04.84,0,.33-.01.56-.04.67,0,.03,0,.07-.02.11s-.02.08-.02.11v.46s0,.12-.02.22c-.01.1-.02.17-.02.22,0,.07,0,.18.02.34.01.15.02.26.02.34v.71l-.11,1.1s-.01.08-.04.14c-.03.07-.04.12-.04.16s.01.11.04.21c.03.09.04.16.04.21v1.41c0,.16,0,.41-.02.76s-.02.6-.02.76c0,.04,0,.12.02.22.01.1.02.17.02.22,0,.1-.03.21-.09.32,0,.03,0,.08.02.15.01.07.02.12.02.15,0,.07,0,.19-.02.36-.01.17-.02.29-.02.36v.67c.06.46.09.8.09,1.02,0,.33.02.67.07,1.02v1.36c0,.06.01.15.04.27.03.12.04.21.04.27v.8l.09.71c0,.14.03.36.09.65l.17.67c0,.06,0,.14-.02.24-.01.1-.02.18-.02.24,0,.1.01.17.04.2,0,.06.01.14.04.26.03.12.04.2.04.26v.63c0,.09.03.16.09.22v.26c.1.38.21.67.32.89.04.12.12.25.22.41.03.06.04.13.04.22.12.12.17.2.17.26.01.01.03.04.05.06.02.03.04.06.07.09.02.03.04.04.05.04.06.12.12.19.17.22.17.23.33.39.46.48.06.03.17.04.35.04l.04.09.5.11c.06.06.17.12.35.17.03.01.13.05.3.12.17.06.3.1.37.1.06,0,.17-.03.35-.09.22,0,.37-.01.46-.04.03,0,.07-.03.13-.09.06-.04.16-.09.29-.15.14-.06.22-.1.25-.13l.17-.17c.36-.36.56-.61.61-.76.14-.14.25-.29.33-.43,0-.01.01-.04.04-.07s.04-.05.04-.06l.13-.46.13-.43c.06-.19.12-.53.17-1.02,0-.13.01-.22.04-.28,0-.01,0-.04.02-.09.01-.04.02-.07.02-.09.09-.38.17-1.1.24-2.17,0-.03,0-.07.02-.13.01-.06.02-.1.02-.13s0-.07-.02-.13c-.01-.06-.02-.09-.02-.11.03-.26.04-.64.04-1.15,0-.04.04-.41.13-1.1v-.58c0-.06,0-.14.02-.26s.02-.2.02-.26v-1.1c0-.49.01-.84.04-1.04,0-.03,0-.06-.02-.1-.01-.04-.02-.06-.02-.08v-.65c0-.65-.01-1.16-.04-1.52v-1.24c0-.06,0-.15-.02-.27-.01-.12-.02-.21-.02-.27,0-.03,0-.07.02-.13.01-.06.02-.1.02-.13s0-.08-.02-.14c-.01-.07-.02-.11-.02-.14,0-.5.01-.86.04-1.06,0-.04.02-.2.07-.47.04-.27.06-.48.06-.64,0-.1-.01-.22-.04-.35-.03-.13-.04-.21-.04-.24,0-.04,0-.1.02-.17.01-.07.02-.13.02-.17.06-.84.09-1.52.09-2.04v-.5l-.17-.89c0-.09,0-.21.02-.37.01-.16.02-.28.02-.37,0-.16,0-.41-.02-.76s-.02-.6-.02-.76c-.03-.17-.04-.44-.04-.8l-.13-.43c-.03-.12-.04-.31-.04-.58v-1.02c-.03-.2-.1-.52-.22-.94-.12-.43-.18-.75-.19-.96-.01-.03-.17-.3-.48-.8l-.24-.41-.39-.35c-.06-.12-.12-.2-.17-.26-.03-.07-.1-.14-.21-.22-.11-.07-.18-.12-.21-.15l-.22-.17c-.4-.26-.67-.4-.8-.43-.03-.01-.44-.06-1.23-.13l-.04.04c-.12.01-.25.07-.39.16-.14.09-.25.16-.33.18Z"/><path class="cls-2" d="M1270.05,133.85c-.04.07-.14.19-.3.37-.16.17-.27.32-.33.43l-.09.17-.09.09c-.06.07-.19.22-.4.45-.21.23-.36.42-.44.56-.1.03-.24.11-.41.25-.17.14-.27.22-.3.25,0,.03-.01.06-.04.09s-.06.04-.09.04h-.09l-.41.35-.39.41-.41.17-.35.26c-.06.03-.14.06-.25.09s-.17.04-.18.04l-.32.22s-.12.05-.26.12c-.14.06-.26.12-.35.16-.06.06-.11.09-.15.09-.03.01-.13.04-.31.06-.18.03-.31.08-.38.15-.14,0-.48.1-1.02.3l-.5.15c-.07.01-.16.04-.25.09-.09.04-.16.07-.18.09-.09.01-.27.03-.55.03s-.49.03-.62.05c-.09.03-.25.04-.48.04-.16,0-.28-.01-.37-.04-.4.06-.71.09-.93.09h-.35c-.16,0-.44-.06-.84-.17l-.43-.09-.2-.13h-.09c-.06,0-.09-.02-.09-.06l-.8-.26-.17-.13h-.22c-.12-.04-.27-.12-.47-.22-.2-.1-.35-.17-.47-.22-.14-.06-.39-.13-.74-.23s-.59-.17-.74-.23c-.01,0-.04-.01-.08-.04-.04-.03-.07-.04-.1-.04-.03-.03-.1-.04-.22-.04-.03-.01-.07-.05-.11-.1-.04-.05-.08-.08-.11-.08h-.13l-.37-.17c-.14-.06-.3-.15-.48-.28-.2-.1-.33-.17-.37-.22l-.3-.22-.09-.04-.17-.13-.37-.24s-.07-.06-.12-.09c-.05-.03-.08-.06-.1-.09-.07-.04-.13-.1-.17-.17-.1-.09-.26-.2-.49-.34-.22-.14-.37-.23-.44-.29l-.41-.35-.43-.46-.17-.3c-.14-.22-.22-.35-.24-.39-.04-.07-.1-.2-.17-.38-.07-.18-.13-.31-.17-.38-.06-.1-.15-.24-.28-.42s-.21-.29-.24-.34c-.01,0-.05-.03-.11-.09l-.22-.26s-.03-.05-.04-.11c-.01-.06-.03-.1-.04-.13-.01-.01-.03-.03-.05-.04s-.04-.03-.05-.04c-.01-.01-.02-.03-.02-.04-.06-.09-.16-.3-.3-.65-.03-.07-.09-.18-.18-.31-.09-.14-.16-.24-.18-.31l-.09-.26s-.03-.08-.09-.19c-.01-.01-.03-.05-.04-.11s-.03-.09-.04-.11c0-.03-.04-.09-.13-.17l-.09-.26c-.04-.25-.11-.47-.2-.67-.03-.06-.12-.52-.26-1.39,0-.03,0-.06-.02-.11-.01-.04-.02-.08-.02-.11-.03-.06-.04-.16-.04-.3v-.35s-.01-.1-.04-.18-.04-.14-.04-.18c0-.01-.01-.13-.04-.36-.03-.22-.06-.39-.09-.49,0-.03-.01-.08-.04-.14s-.04-.12-.04-.16c-.03-.03-.04-.1-.04-.22v-.28c0-.1,0-.27-.02-.5-.01-.23-.02-.4-.02-.52-.06-.17-.09-.32-.09-.43,0-.06,0-.15.02-.27.01-.12.02-.21.02-.27s0-.14-.02-.24c-.01-.1-.02-.18-.02-.24,0-.12-.02-.29-.05-.51s-.05-.39-.05-.51c.07-.9.12-1.42.15-1.56l.09-.97.13-.93c.06-.12.09-.19.09-.22v-.28l.17-.89.13-.43s0-.09.02-.2c.01-.1.02-.17.02-.22v-.09c.09-.12.2-.36.33-.74.17-.29.26-.54.26-.76.12-.19.25-.47.39-.83s.25-.62.33-.77l.09-.09s.01-.06.04-.09c0-.03,0-.07.02-.11s.02-.08.02-.11c.13-.19.2-.31.22-.37.06-.09.12-.22.17-.39l.28-.46c.32-.52.48-.79.48-.8l.22-.35s.08-.09.12-.14c.04-.05.08-.11.13-.18.05-.07.09-.13.12-.17l.13-.13c.04-.13.12-.25.22-.35l.04-.09.04-.09s.04-.06.08-.09c.04-.03.05-.06.05-.09l.11-.2c.12-.12.2-.19.26-.22,0-.03.03-.04.09-.04l.13-.17.39-.37c.14-.19.33-.35.54-.48,0-.01.02-.03.06-.04.01-.01.03-.02.03-.02,0,0,.02,0,.03-.02.03-.01.06-.05.11-.11.04-.06.08-.09.11-.11l.32-.19c.09-.06.18-.17.29-.34.11-.17.18-.27.23-.31.06-.04.17-.1.33-.16.17-.07.28-.12.34-.16.12-.12.2-.19.26-.22.42-.17.66-.27.71-.3.12-.06.2-.12.26-.17.1,0,.17-.01.2-.04l.04-.06s.06-.07.09-.09c.01,0,.04,0,.09-.02.04-.01.07-.02.09-.02.06-.06.1-.09.13-.09l.45-.09.22-.09c.26-.09,1.16-.31,2.71-.67.01,0,.04,0,.06-.02s.05-.02.07-.02c.01,0,.4-.04,1.15-.13h.97c.09.01.45.05,1.09.1.64.05,1.12.1,1.44.16.16.03.41.09.75.18s.6.16.77.18c.85.22,1.32.35,1.41.39.23.07.63.27,1.19.58l1.02.52.28.24.09.09c.61.43.95.69,1.02.76l.58.56c.25.2.46.41.65.63l.13.17.28.35.43.54.22.22.19.33.09.09.09.17.3.48.67,1.26.52,1.32s.01.05.03.11c.02.06.03.09.03.11l.13.2.13.48c.16.49.25.77.26.84.03.06.04.13.04.22l.09.19c.06.16.12.46.17.89l.11.93c.12.35.17.62.17.82,0,.09,0,.22.02.4.01.18.02.31.02.4s0,.22-.02.39c-.01.17-.02.3-.02.37v3.01s-.01.18-.04.47c-.03.28-.06.5-.09.66,0,.03,0,.08-.02.14-.01.07-.02.12-.02.16,0,.06-.01.22-.03.5s-.05.48-.08.61c-.06.17-.09.34-.09.5-.06.12-.09.19-.09.22v.3s-.03.1-.09.22c0,.13-.01.22-.04.28,0,.09-.03.25-.09.48-.01.06-.05.24-.1.54-.05.3-.11.54-.16.71-.1.39-.16.61-.17.65l-.15.5-.09.43c-.01.07-.04.16-.09.26-.04.1-.07.17-.09.19-.03.04-.06.12-.09.22-.03.1-.06.17-.09.22,0,.03-.01.07-.04.12-.03.05-.04.09-.04.12-.01.04-.06.27-.13.69l-.09.13c0,.1-.01.15-.04.15-.01.04-.05.11-.12.2-.06.09-.1.15-.12.19l-.13.17-.09.17-.17.46-.22.22-.04.04v.04c-.03.06-.1.18-.21.37-.11.19-.21.33-.29.43-.06,0-.09.01-.09.04l-.04.09v.04l-.04.04s-.04.07-.04.13c-.09.09-.13.14-.13.15l-.09.22ZM1257.57,104.44c-.17.17-.32.29-.43.35-.01.04-.07.12-.16.23-.09.11-.15.17-.16.18l-.09.09-.35.8c-.09.12-.14.25-.17.39l-.11.22s-.01.05-.04.1c-.03.05-.04.08-.04.1-.03.06-.04.13-.04.22v.17l-.13.3v.37l-.13.3-.13.71c-.01.1-.05.24-.11.41l-.07.26c-.03.06-.04.14-.04.26v.22c0,.25-.01.43-.04.54,0,.12-.01.29-.04.52-.03.23-.04.38-.04.45,0,.16,0,.38.02.65.01.27.02.47.02.58,0,.03,0,.07.02.12.01.05.02.08.02.1,0,.03,0,.07-.02.11-.01.04-.02.07-.02.09,0,.19.01.46.04.82.03.36.04.64.04.84,0,.33-.01.56-.04.67,0,.03,0,.07-.02.11s-.02.08-.02.11v.46s0,.12-.02.22c-.01.1-.02.17-.02.22,0,.07,0,.18.02.34.01.15.02.26.02.34v.71l-.11,1.1s-.01.08-.04.14c-.03.07-.04.12-.04.16s.01.11.04.21c.03.09.04.16.04.21v1.41c0,.16,0,.41-.02.76s-.02.6-.02.76c0,.04,0,.12.02.22.01.1.02.17.02.22,0,.1-.03.21-.09.32,0,.03,0,.08.02.15.01.07.02.12.02.15,0,.07,0,.19-.02.36-.01.17-.02.29-.02.36v.67c.06.46.09.8.09,1.02,0,.33.02.67.07,1.02v1.36c0,.06.01.15.04.27.03.12.04.21.04.27v.8l.09.71c0,.14.03.36.09.65l.17.67c0,.06,0,.14-.02.24-.01.1-.02.18-.02.24,0,.1.01.17.04.2,0,.06.01.14.04.26.03.12.04.2.04.26v.63c0,.09.03.16.09.22v.26c.1.38.21.67.32.89.04.12.12.25.22.41.03.06.04.13.04.22.12.12.17.2.17.26.01.01.03.04.05.06.02.03.04.06.07.09.02.03.04.04.05.04.06.12.12.19.17.22.17.23.33.39.46.48.06.03.17.04.35.04l.04.09.5.11c.06.06.17.12.35.17.03.01.13.05.3.12.17.06.3.1.37.1.06,0,.17-.03.35-.09.22,0,.37-.01.46-.04.03,0,.07-.03.13-.09.06-.04.16-.09.29-.15.14-.06.22-.1.25-.13l.17-.17c.36-.36.56-.61.61-.76.14-.14.25-.29.33-.43,0-.01.01-.04.04-.07s.04-.05.04-.06l.13-.46.13-.43c.06-.19.12-.53.17-1.02,0-.13.01-.22.04-.28,0-.01,0-.04.02-.09.01-.04.02-.07.02-.09.09-.38.17-1.1.24-2.17,0-.03,0-.07.02-.13.01-.06.02-.1.02-.13s0-.07-.02-.13c-.01-.06-.02-.09-.02-.11.03-.26.04-.64.04-1.15,0-.04.04-.41.13-1.1v-.58c0-.06,0-.14.02-.26s.02-.2.02-.26v-1.1c0-.49.01-.84.04-1.04,0-.03,0-.06-.02-.1-.01-.04-.02-.06-.02-.08v-.65c0-.65-.01-1.16-.04-1.52v-1.24c0-.06,0-.15-.02-.27-.01-.12-.02-.21-.02-.27,0-.03,0-.07.02-.13.01-.06.02-.1.02-.13s0-.08-.02-.14c-.01-.07-.02-.11-.02-.14,0-.5.01-.86.04-1.06,0-.04.02-.2.07-.47.04-.27.06-.48.06-.64,0-.1-.01-.22-.04-.35-.03-.13-.04-.21-.04-.24,0-.04,0-.1.02-.17.01-.07.02-.13.02-.17.06-.84.09-1.52.09-2.04v-.5l-.17-.89c0-.09,0-.21.02-.37.01-.16.02-.28.02-.37,0-.16,0-.41-.02-.76s-.02-.6-.02-.76c-.03-.17-.04-.44-.04-.8l-.13-.43c-.03-.12-.04-.31-.04-.58v-1.02c-.03-.2-.1-.52-.22-.94-.12-.43-.18-.75-.19-.96-.01-.03-.17-.3-.48-.8l-.24-.41-.39-.35c-.06-.12-.12-.2-.17-.26-.03-.07-.1-.14-.21-.22-.11-.07-.18-.12-.21-.15l-.22-.17c-.4-.26-.67-.4-.8-.43-.03-.01-.44-.06-1.23-.13l-.04.04c-.12.01-.25.07-.39.16-.14.09-.25.16-.33.18Z"/><path class="cls-2" d="M1291.69,119.71c.06.03.17.04.35.04h.35l.67.13s.04,0,.08.02.07.02.1.02l.45.13.67.09.09.09c.1.03.21.07.33.12.12.05.26.12.41.2s.27.14.36.18l.13.09.63.3c.06,0,.13.04.22.13.07.06.22.16.44.29.22.14.39.25.49.34.07.03.16.09.25.18.09.09.15.15.18.16.07.04.17.1.28.16.12.07.19.11.22.12.22.27.35.43.39.48l.15.09.11.09c.09.06.14.1.15.13.03.03.04.08.04.15.1.06.2.16.3.3,0,.01,0,.04.02.07.01.03.02.05.02.06.25.3.38.5.41.58l.09.35s.01.08.04.15c.03.07.04.12.04.15.03.06.05.16.06.3s.04.25.07.33c.01.07.05.17.11.3s.09.24.11.33l.09.17v.43c0,.22.01.37.04.46,0,.01,0,.04.02.08.01.04.02.07.02.1.04.04.07.12.07.22.12.4.17.71.17.93,0,.1-.01.18-.04.24,0,.03,0,.07.02.12.01.05.02.08.02.1,0,.04,0,.11-.02.21-.01.09-.02.17-.02.23-.03.1-.07.3-.12.61-.05.3-.09.51-.12.61-.01.09-.06.2-.13.34-.07.14-.12.23-.13.27l-.09.54-.26.48-.22.5s-.09.14-.24.37c-.14.23-.25.42-.3.56-.36.3-.71.66-1.06,1.06-.04.07-.1.13-.17.17-.06.13-.11.2-.15.22-.03.04-.1.11-.22.2-.12.09-.19.14-.22.17-.03.03-.08.08-.16.15-.08.07-.16.15-.23.23-.07.08-.14.15-.19.21-.48.19-.92.4-1.32.65-.06.03-.1.04-.13.04,0,.06-.01.09-.04.09h-.04l-.63.41-.04.04s-.04.01-.04.04c-.12.06-.19.1-.22.13-.1.1-.3.19-.58.26l-.84.41c-.17.09-.38.13-.63.13-.06.03-.13.04-.22.04-.17.06-.3.12-.39.17-.17.06-.37.11-.6.16s-.48.1-.78.14c-.3.04-.52.08-.66.11l-.63.13h-.67c-.12.06-.2.09-.26.09h-1.06s-.12.01-.23.04c-.11.03-.18.04-.23.04h-.61c-.07,0-.18,0-.34.02-.15.01-.26.02-.33.02-.13-.01-.32-.05-.57-.11-.25-.06-.44-.09-.57-.11h-.63c-.3,0-.51-.01-.63-.04-.03,0-.08-.01-.14-.04-.06-.03-.12-.04-.16-.04-.39,0-.69-.01-.89-.04-.09-.03-.25-.09-.48-.18-.23-.09-.41-.16-.54-.18-.04-.03-.13-.06-.25-.11-.12-.04-.21-.08-.25-.11-.09,0-.22-.06-.39-.17-.51-.33-.77-.51-.8-.54-.06-.03-.18-.12-.38-.26-.19-.14-.35-.23-.47-.26-.03-.04-.19-.21-.5-.49-.3-.28-.49-.54-.56-.77l-.58-.67c-.09-.2-.2-.4-.35-.61-.03-.09-.09-.19-.17-.33-.09-.13-.14-.22-.17-.26,0-.01,0-.04-.02-.06s-.02-.05-.02-.07c-.12-.16-.2-.34-.24-.54l-.26-.43c0-.06-.03-.12-.09-.17-.03-.12-.06-.3-.09-.55-.03-.25-.06-.44-.09-.55,0-.04,0-.1-.02-.16-.01-.06-.02-.12-.02-.16-.09-.52-.13-.8-.13-.84v-.97c.06-.45.12-.74.17-.89.03-.12.1-.28.21-.5.11-.22.18-.38.23-.48l.09-.04c0-.12.01-.19.04-.22.03-.03.09-.09.18-.17.09-.09.15-.16.18-.22l.09-.19s.06-.04.09-.04c.04-.1.14-.25.29-.43s.25-.31.29-.37l.48-.48c.12-.16.28-.27.5-.35l.22-.11.17-.17s.28-.14.76-.39c.04-.01.13-.05.26-.1.13-.05.22-.08.26-.08.12-.03.31-.04.58-.04l1.15-.11c.06,0,.14,0,.26-.02.12-.01.19-.02.24-.02h.09c.07,0,.2.02.37.07.17.04.27.07.3.09.04,0,.1,0,.17.02s.13.02.17.02c.13.04.31.12.53.22.22.1.4.17.53.22l.26.13c.26.09.43.17.5.24l.26.13.28.13.22.17c0,.09.07.13.22.13.19.14.3.28.35.41.03.06.04.13.04.22,0,.14-.06.33-.17.56l-.3.63-.13.35-.37.58-.39,1.02-.13.76-.17.71-.09.39s-.02.1-.05.18c-.04.08-.05.14-.05.18l.06.13c0,.12-.02.34-.05.68-.04.34-.05.6-.05.77,0,.25.01.41.04.5l.19.84.09.43c0,.06,0,.14.02.24.01.1.02.17.02.22.04.17.13.38.27.62.14.24.23.43.29.57.35.35.58.56.71.63.09,0,.16.06.22.17l.58.13c.06.01.15.05.27.1.12.05.21.08.27.08h.74s.13-.04.27-.09c.14-.04.24-.09.31-.13.19-.19.33-.3.41-.35l.04-.04.04-.11s.02-.07.07-.13c.04-.06.1-.12.16-.19s.1-.12.12-.15l.09-.17s.01-.03.04-.04c.03-.01.04-.03.04-.04v-.04s.01-.06.04-.09c.01-.01.14-.21.37-.58.14-.35.25-.64.3-.89,0-.16.01-.3.04-.41.03-.09.06-.21.09-.38.03-.17.06-.3.09-.4l.13-.76c0-.42.01-.73.04-.93,0-.35.03-.91.09-1.69.07-.65.11-1,.11-1.06,0-.09-.04-.31-.11-.67v-.09c.1-.5.15-.95.15-1.32v-.37s0-.12-.02-.22c-.01-.1-.02-.19-.02-.26v-.63c-.01-.07-.05-.17-.1-.29-.05-.12-.08-.22-.1-.29v-.48c0-.06-.01-.13-.04-.22-.03-.09-.04-.15-.04-.19,0-.17.01-.3.04-.39v-.84c-.01-.06-.03-.19-.03-.4,0-.21-.03-.36-.05-.44-.04-.23-.13-.44-.26-.63-.1-.13-.34-.32-.71-.56l-.35-.22s-.06-.01-.09-.04l-.28-.2s-.17-.07-.39-.13c-.22-.06-.37-.13-.45-.22h-.17c-.14,0-.26-.01-.35-.04-.04,0-.12,0-.23-.02s-.18-.02-.23-.02c-.17-.03-.4-.04-.69-.04h-.33l-.65.13s-.08.03-.14.03c-.07,0-.12.02-.16.03-.04.01-.08.04-.11.06-.01.01-.05.04-.11.09s-.11.07-.15.09c-.01,0-.09.01-.22.04-.13.03-.22.06-.28.09-.04.01-.09.05-.14.1s-.09.08-.12.1l-.3.09c-.16,0-.28.01-.37.04v.04h-.13c-.09.09-.22.13-.39.13-.01,0-.14-.03-.37-.09-.03-.03-.09-.04-.17-.04-.04-.01-.14-.03-.28-.03-.14,0-.24-.03-.28-.05-.16-.16-.24-.25-.24-.28v-.04c0-.07.05-.17.15-.29.1-.12.16-.2.17-.23.06-.06.09-.12.09-.17l.13-.09c.07-.14.13-.24.17-.28.06-.09.14-.21.26-.37s.21-.29.29-.4c.08-.11.15-.19.21-.25.09,0,.14-.01.17-.04l.13-.13c.17-.09.28-.13.32-.13.03,0,.07,0,.13-.02s.1-.02.13-.02c.01,0,.33.04.93.13.17.06.27.09.3.09.06,0,.15,0,.28-.02s.22-.02.26-.02c.12,0,.26,0,.43.02.17.01.3.02.37.02.23-.03.51-.1.84-.22l.3-.17c.14,0,.33-.06.55-.18.22-.12.39-.24.51-.36l.09-.09.26-.22s.09-.03.15-.09c.16-.1.29-.25.39-.45.2-.09.37-.28.5-.58l.17-.48s.01-.07.04-.13.04-.1.04-.13v-.33c0-.23.04-.39.13-.48-.06-.23-.09-.43-.09-.58,0-.09,0-.22.02-.4s.02-.31.02-.4v-.69c0-.3.01-.54.04-.71,0-.01.04-.24.13-.67,0-.33-.01-.57-.04-.71.01-.1.04-.21.09-.33s.07-.2.09-.24v-.33c.09-.26.13-.45.13-.56,0-.03,0-.08-.02-.14-.01-.06-.02-.11-.02-.14-.01-.1-.03-.3-.03-.58,0-.29-.03-.53-.05-.74,0-.22-.04-.41-.13-.58-.01-.06-.05-.13-.11-.22-.06-.09-.09-.16-.11-.22-.01-.03-.03-.07-.04-.12-.01-.05-.03-.08-.04-.1-.09-.17-.21-.34-.37-.5-.1-.13-.23-.26-.39-.39-.01,0-.03-.01-.04-.04-.01-.03-.03-.04-.04-.04-.22-.07-.35-.11-.41-.11l-.39-.17c-.26-.09-.54-.13-.84-.13-.06,0-.14,0-.24.02-.1.01-.18.02-.24.02-.04.03-.2.09-.46.17-.04.01-.18.1-.4.26-.22.16-.42.24-.57.24-.09.1-.2.26-.34.49-.14.22-.23.37-.29.44l-.22.35s-.07.18-.17.5l-.22.43c0,.36-.04.6-.13.71.03.09.04.2.04.35,0,.07,0,.18-.02.31-.01.14-.02.24-.02.31v.63c.06.66.09,1.24.09,1.73,0,.03,0,.08-.02.15-.01.07-.02.12-.02.15l.17.84c0,.39.06.66.17.8l-.13.39c0,.06.01.13.04.23.03.09.04.17.04.23,0,.01,0,.04-.02.09s-.02.07-.02.09c-.04.12-.13.22-.26.3-.06.06-.15.09-.28.09h-.17l-.48.28c-.06.01-.22.03-.49.05-.27.02-.49.05-.68.08-.06,0-.14,0-.26.02-.12.01-.2.02-.26.02-.39,0-.7-.06-.93-.17h-.13s-.22-.05-.63-.15c-.12,0-.2-.01-.26-.04-.1,0-.24-.04-.41-.13l-.39-.13-.37-.17-.61-.35-.37-.32s-.11-.13-.18-.26-.13-.22-.16-.26c-.09-.09-.17-.15-.26-.19-.22-.17-.44-.5-.67-.97l-.04-.04v-.09l-.17-.35c0-.19-.01-.34-.04-.46l-.13-.39s.01-.1.04-.17.04-.13.04-.17l.09-.93c0-.07.03-.17.1-.28.07-.12.1-.2.12-.26.03-.03.04-.1.04-.22l.09-.46c0-.12.01-.19.04-.22.01-.06.04-.11.08-.15s.09-.09.15-.13c.07-.04.11-.08.14-.11.04-.33.17-.63.39-.89l.17-.24c.22-.29.38-.49.5-.61.01-.03.05-.07.11-.12s.09-.09.11-.12c.03-.03.04-.07.04-.13l.17-.17s.17-.12.37-.22c.2-.1.35-.2.43-.3.26-.07.77-.34,1.52-.8.16-.03.38-.09.66-.18.28-.09.46-.16.53-.18l.8-.22c.17-.06.29-.09.35-.09.43-.1.98-.2,1.65-.3.06-.01.18-.05.36-.12s.31-.1.4-.12h.48c.33,0,.57-.01.71-.04.07,0,.18-.01.31-.04.14-.03.24-.04.31-.04l.52-.13c.12,0,.32,0,.62.02.29.01.49.02.59.02h.65c.12.03.27.04.46.04.39,0,.69.03.89.09.26.04.5.11.71.2h.22s.07.04.13.04h.17l.8.22h.54s.11.05.21.12.17.11.23.14c.1,0,.22.04.35.13.01,0,.03.01.05.04.02.03.04.04.05.04.12,0,.22.06.3.19.2.1.41.17.63.22.16.07.39.13.69.17.01.03.07.06.15.09.09.03.14.06.17.09.12.06.2.12.26.17.06.03.13.04.22.04l.09.15c.06,0,.09.01.09.04.01,0,.03.01.04.03.01.02.03.03.04.01.03.03.1.08.21.14.11.06.18.1.21.12l.43.35.19.09.17.28s.07.05.12.08c.05.02.08.04.1.05.04.06.13.22.26.48l.13.24c.07.14.18.29.32.43.01.03.06.08.13.15.07.07.12.12.13.15l.17.32c.16.2.3.5.41.89.09.22.13.45.13.69v.07c0,.06,0,.14.02.25.01.11.02.18.02.23,0,.13-.03.28-.09.45.06.23.09.38.09.43,0,.07-.03.25-.09.54l-.09.48-.24.71v.26c-.1.16-.17.3-.22.41l-.09.17c-.01.06-.1.25-.26.56l-.17.37-.09.04c-.07.1-.19.29-.35.55-.16.27-.31.5-.44.69-.14.19-.29.37-.47.53v.09h-.09l-.04.04-.43.39c-.12.06-.21.12-.28.2l-.3.26-.04.04h-.09s-.06.04-.09.09c-.03.04-.06.07-.09.09-.04.04-.14.1-.28.17-.01,0-.16.09-.43.28l-.09.09s-.01.03-.04.04c-.03.01-.04.03-.04.04-.06,0-.1.01-.13.04,0,.01-.01.03-.04.04-.03.01-.05.03-.07.04-.03.03-.13.07-.3.13-.03.04-.09.09-.17.15-.09.06-.14.11-.17.15-.01,0-.07.01-.17.04-.1.03-.17.04-.19.04l-.04.04s-.14.09-.35.19c-.2.07-.34.13-.41.17l-.3.17-.8.09c-.06.03-.1.06-.13.09-.13.04-.25.14-.35.28Z"/><path class="cls-9" d="M41.72,193.13v-16.59h3.69v16.59h-3.69ZM44.54,179.71v-3.17h8.67v3.17h-8.67ZM44.54,186.62v-3.17h8.3v3.17h-8.3Z"/><path class="cls-9" d="M63.32,193.41c-1.25,0-2.41-.22-3.47-.66s-1.99-1.05-2.78-1.83c-.8-.78-1.42-1.7-1.86-2.74-.44-1.04-.66-2.17-.66-3.37s.22-2.35.66-3.38c.44-1.03,1.05-1.94,1.83-2.71.78-.78,1.7-1.38,2.76-1.81,1.06-.43,2.21-.65,3.47-.65s2.39.22,3.44.65c1.06.43,1.98,1.03,2.77,1.81.79.78,1.41,1.69,1.84,2.73.44,1.04.66,2.17.66,3.4s-.22,2.33-.66,3.37c-.44,1.04-1.05,1.95-1.83,2.73-.78.78-1.7,1.38-2.76,1.82-1.06.44-2.2.66-3.42.66ZM63.27,190.05c.99,0,1.85-.22,2.6-.66.74-.44,1.32-1.05,1.73-1.84.41-.79.61-1.7.61-2.74,0-.78-.12-1.49-.35-2.13-.24-.63-.57-1.18-1.01-1.65-.44-.46-.96-.81-1.56-1.06-.6-.24-1.27-.36-2.01-.36-.99,0-1.85.22-2.6.65s-1.32,1.03-1.73,1.81c-.41.78-.61,1.69-.61,2.74,0,.78.12,1.5.35,2.14.23.64.57,1.19,1,1.66.43.46.95.82,1.56,1.07.61.25,1.28.38,2.02.38Z"/><path class="cls-9" d="M74.34,193.13v-16.59h3.69v16.59h-3.69ZM77.16,186.29v-2.73h3.5c.74,0,1.3-.19,1.7-.56.4-.38.6-.88.6-1.53,0-.59-.2-1.09-.59-1.48-.39-.39-.96-.59-1.69-.59h-3.52v-2.87h3.95c1.1,0,2.06.21,2.89.62.83.42,1.48.99,1.95,1.73.47.74.71,1.58.71,2.54s-.24,1.82-.71,2.55c-.47.73-1.13,1.3-1.97,1.7-.85.41-1.84.61-2.98.61h-3.83ZM83.36,193.13l-5.17-7.14,3.38-.92,6.16,8.06h-4.37Z"/><path class="cls-9" d="M101.15,193.13l6.58-16.59h3.34l6.51,16.59h-3.9l-4.98-13.77h1.34l-5.05,13.77h-3.83ZM104.89,190.12v-3.01h9.05v3.01h-9.05Z"/><path class="cls-9" d="M132.26,193.13v-16.59h3.64v16.59h-3.64ZM135.08,193.13v-2.87h3.9c.72,0,1.28-.21,1.69-.63.41-.42.61-.94.61-1.55,0-.42-.09-.8-.28-1.13-.19-.33-.45-.59-.79-.78s-.75-.28-1.23-.28h-3.9v-2.8h3.6c.61,0,1.1-.15,1.48-.46.38-.31.56-.77.56-1.4s-.19-1.07-.56-1.38c-.38-.31-.87-.46-1.48-.46h-3.6v-2.87h4.3c1.07,0,1.97.2,2.71.59.74.39,1.31.92,1.7,1.57.39.66.59,1.39.59,2.19,0,1.02-.33,1.88-.99,2.59-.66.71-1.63,1.19-2.91,1.46l.09-1.25c1.39.27,2.47.81,3.23,1.62.76.82,1.14,1.82,1.14,3.01,0,.91-.22,1.73-.67,2.46s-1.09,1.3-1.93,1.73c-.84.42-1.84.63-3.02.63h-4.25Z"/><path class="cls-9" d="M147.33,193.13v-16.59h3.69v16.59h-3.69ZM150.15,186.29v-2.73h3.5c.74,0,1.3-.19,1.7-.56.4-.38.6-.88.6-1.53,0-.59-.2-1.09-.59-1.48-.39-.39-.96-.59-1.69-.59h-3.53v-2.87h3.95c1.1,0,2.06.21,2.89.62.83.42,1.48.99,1.95,1.73.47.74.71,1.58.71,2.54s-.24,1.82-.71,2.55-1.13,1.3-1.97,1.7c-.85.41-1.84.61-2.99.61h-3.83ZM156.35,193.13l-5.17-7.14,3.38-.92,6.16,8.06h-4.37Z"/><path class="cls-9" d="M162.32,193.13v-16.59h3.69v16.59h-3.69Z"/><path class="cls-9" d="M177.03,193.39c-1.21,0-2.34-.22-3.4-.66-1.06-.44-1.98-1.05-2.76-1.82s-1.4-1.68-1.84-2.73c-.45-1.04-.67-2.17-.67-3.37s.23-2.33.68-3.36c.45-1.03,1.08-1.94,1.89-2.71.81-.78,1.75-1.38,2.83-1.81,1.08-.43,2.24-.65,3.48-.65,1.43,0,2.72.26,3.89.78,1.17.52,2.13,1.23,2.9,2.14l-2.51,2.51c-.53-.69-1.16-1.21-1.88-1.55-.72-.34-1.54-.52-2.44-.52-.97,0-1.84.21-2.61.65s-1.37,1.03-1.8,1.81-.65,1.68-.65,2.71.21,1.94.63,2.73,1,1.39,1.74,1.83,1.58.66,2.54.66,1.8-.18,2.48-.55c.68-.37,1.21-.9,1.58-1.6s.55-1.55.55-2.55l2.44,1.64-7.4-.12v-3.13h8.72v.54c0,1.99-.36,3.66-1.07,5.02-.71,1.36-1.7,2.38-2.96,3.07-1.26.69-2.71,1.03-4.36,1.03Z"/><path class="cls-9" d="M187.65,193.13v-16.59h3.69v16.59h-3.69ZM189.86,186.2v-3.2h9.28v3.2h-9.28ZM197.92,193.13v-16.59h3.71v16.59h-3.71Z"/><path class="cls-9" d="M203.68,179.76v-3.22h14.08v3.22h-14.08ZM208.87,193.13v-16.36h3.69v16.36h-3.69Z"/><path class="cls-9" d="M232.84,193.13v-16.59h3.69v16.59h-3.69ZM235.66,179.71v-3.17h8.67v3.17h-8.67ZM235.66,186.62v-3.17h8.3v3.17h-8.3Z"/><path class="cls-9" d="M253.38,193.39c-1.36,0-2.57-.29-3.61-.87-1.04-.58-1.86-1.38-2.44-2.41-.59-1.03-.88-2.2-.88-3.51v-10.06h3.71v10.27c0,.66.14,1.23.42,1.72.28.49.67.86,1.16,1.12.49.26,1.04.39,1.63.39.63,0,1.17-.13,1.64-.39.47-.26.84-.63,1.12-1.1.27-.48.41-1.05.41-1.7v-10.29h3.71v10.08c0,1.32-.29,2.48-.87,3.5-.58,1.02-1.39,1.82-2.42,2.4-1.03.58-2.23.87-3.59.87Z"/><path class="cls-9" d="M261.98,179.76v-3.22h14.08v3.22h-14.08ZM267.18,193.13v-16.36h3.69v16.36h-3.69Z"/><path class="cls-9" d="M284.71,193.39c-1.36,0-2.57-.29-3.61-.87-1.04-.58-1.86-1.38-2.44-2.41-.59-1.03-.88-2.2-.88-3.51v-10.06h3.71v10.27c0,.66.14,1.23.42,1.72.28.49.67.86,1.16,1.12.49.26,1.04.39,1.63.39.63,0,1.17-.13,1.64-.39.47-.26.84-.63,1.12-1.1.27-.48.41-1.05.41-1.7v-10.29h3.71v10.08c0,1.32-.29,2.48-.87,3.5-.58,1.02-1.39,1.82-2.42,2.4-1.03.58-2.23.87-3.59.87Z"/><path class="cls-9" d="M294.53,193.13v-16.59h3.69v16.59h-3.69ZM297.35,186.29v-2.73h3.5c.74,0,1.3-.19,1.7-.56.4-.38.6-.88.6-1.53,0-.59-.2-1.09-.59-1.48-.39-.39-.96-.59-1.69-.59h-3.53v-2.87h3.95c1.1,0,2.06.21,2.89.62.83.42,1.48.99,1.95,1.73.47.74.71,1.58.71,2.54s-.24,1.82-.71,2.55-1.13,1.3-1.97,1.7c-.85.41-1.84.61-2.99.61h-3.83ZM303.55,193.13l-5.17-7.14,3.38-.92,6.16,8.06h-4.37Z"/><path class="cls-9" d="M309.52,193.13v-16.59h3.69v16.59h-3.69ZM312.34,179.71v-3.17h8.98v3.17h-8.98ZM312.34,186.2v-3.08h8.27v3.08h-8.27ZM312.34,193.13v-3.2h9.09v3.2h-9.09Z"/><path class="cls-1" d="M40.15,27.72h14.14v141.5h-14.14V27.72Z"/><path class="cls-1" d="M84.02,27.72h28.18c16.16,0,27.06.71,32.71,2.12,8.08,1.99,14.68,6.08,19.82,12.26,5.13,6.19,7.7,13.96,7.7,23.33s-2.5,17.2-7.5,23.33c-5,6.12-11.9,10.24-20.68,12.36-6.41,1.54-18.41,2.31-35.98,2.31h-10.1v65.79h-14.14V27.72ZM98.16,41.58v48l23.95.29c9.68,0,16.77-.88,21.26-2.64,4.49-1.76,8.02-4.61,10.58-8.54,2.56-3.94,3.85-8.34,3.85-13.2s-1.28-9.07-3.85-13.01c-2.57-3.94-5.95-6.74-10.15-8.4-4.2-1.66-11.08-2.5-20.63-2.5h-25.01Z"/><path class="cls-1" d="M255.93,27.72l65.99,141.5h-15.27l-22.25-46.56h-60.96l-22.04,46.56h-15.78L252.46,27.72h3.46ZM254.14,57.79l-24.25,51.22h48.38l-24.13-51.22Z"/><line class="cls-4" x1="6.46" y1="138.51" x2="119.63" y2="138.51"/><circle class="cls-7" cx="118.62" cy="138.51" r="12.5"/><circle class="cls-7" cx="68.62" cy="138.51" r="12.5"/><circle class="cls-7" cx="12.62" cy="138.51" r="12.5"/><line class="cls-3" x1="140.12" y1="115.62" x2="252.62" y2="115.62"/><circle class="cls-6" cx="193.62" cy="115.62" r="12.5"/><circle class="cls-6" cx="259.62" cy="115.62" r="12.5"/><circle class="cls-6" cx="141.62" cy="115.62" r="12.5"/><circle class="cls-8" cx="201.63" cy="66.51" r="12.5"/><circle class="cls-8" cx="126.63" cy="66.51" r="12.5"/><circle class="cls-8" cx="67.12" cy="66.51" r="12.5"/><line class="cls-5" x1="64.63" y1="66.51" x2="201.57" y2="66.51"/><path class="cls-10" d="M321.27,99.27v-32.84h6.96v32.84h-6.96Z"/><path class="cls-10" d="M363.75,82.53c0,3.7-.71,6.79-2.12,9.27-1.42,2.48-3.46,4.34-6.14,5.59-2.68,1.25-5.91,1.88-9.68,1.88h-9.3v-32.84h10.31c3.44,0,6.43.61,8.96,1.83,2.53,1.22,4.49,3.02,5.88,5.41,1.39,2.39,2.09,5.34,2.09,8.86ZM356.51,82.71c0-2.43-.36-4.42-1.07-5.99-.71-1.56-1.76-2.72-3.14-3.47-1.39-.75-3.1-1.12-5.13-1.12h-3.71v21.38h2.99c3.4,0,5.93-.91,7.58-2.72,1.65-1.81,2.48-4.51,2.48-8.09Z"/><path class="cls-10" d="M389.46,99.27h-18.91v-32.84h18.91v5.71h-11.95v7.21h11.12v5.71h-11.12v8.47h11.95v5.75Z"/><path class="cls-10" d="M416.42,99.27l-2.38-7.82h-11.97l-2.38,7.82h-7.5l11.59-32.97h8.51l11.63,32.97h-7.5ZM412.37,85.61l-2.38-7.64c-.15-.51-.35-1.16-.6-1.97-.25-.8-.49-1.62-.74-2.45s-.45-1.55-.6-2.17c-.15.61-.36,1.37-.62,2.28-.26.91-.51,1.76-.75,2.57-.24.81-.41,1.39-.52,1.73l-2.36,7.64h8.56Z"/><path class="cls-10" d="M428.05,99.27v-32.84h6.96v27.09h13.32v5.75h-20.28Z"/><path class="cls-10" d="M476.48,66.43c4.24,0,7.33.91,9.28,2.73,1.95,1.82,2.92,4.32,2.92,7.51,0,1.44-.22,2.81-.65,4.12-.43,1.31-1.14,2.47-2.12,3.49-.98,1.02-2.29,1.82-3.92,2.41-1.63.59-3.65.89-6.04.89h-2.99v11.68h-6.96v-32.84h10.49ZM476.12,72.13h-3.17v9.75h2.29c1.3,0,2.43-.17,3.39-.52.96-.34,1.7-.88,2.22-1.62.52-.73.79-1.68.79-2.83,0-1.62-.45-2.82-1.35-3.6s-2.29-1.18-4.18-1.18Z"/><path class="cls-10" d="M494.87,99.27v-32.84h6.96v27.09h13.32v5.75h-20.28Z"/><path class="cls-10" d="M540.96,99.27l-2.38-7.82h-11.97l-2.38,7.82h-7.5l11.59-32.97h8.51l11.63,32.97h-7.5ZM536.92,85.61l-2.38-7.64c-.15-.51-.35-1.16-.6-1.97-.25-.8-.49-1.62-.74-2.45s-.45-1.55-.6-2.17c-.15.61-.36,1.37-.62,2.28-.26.91-.51,1.76-.75,2.57-.24.81-.41,1.39-.52,1.73l-2.36,7.64h8.56Z"/><path class="cls-10" d="M562.82,79.95l6.85-13.52h7.5l-10.89,20.06v12.78h-6.92v-12.56l-10.89-20.28h7.55l6.81,13.52Z"/><path class="cls-10" d="M613.35,99.27l-2.38-7.82h-11.97l-2.38,7.82h-7.5l11.59-32.97h8.51l11.63,32.97h-7.5ZM609.31,85.61l-2.38-7.64c-.15-.51-.35-1.16-.6-1.97-.25-.8-.49-1.62-.74-2.45s-.45-1.55-.6-2.17c-.15.61-.36,1.37-.62,2.28-.26.91-.51,1.76-.75,2.57-.24.81-.41,1.39-.52,1.73l-2.36,7.64h8.56Z"/><path class="cls-10" d="M624.99,66.43h10.22c4.37,0,7.68.61,9.93,1.84,2.25,1.23,3.37,3.38,3.37,6.47,0,1.24-.2,2.37-.6,3.37-.4,1-.97,1.83-1.72,2.47-.75.64-1.66,1.06-2.74,1.26v.22c1.09.22,2.08.61,2.96,1.16.88.55,1.59,1.34,2.12,2.38.53,1.04.8,2.42.8,4.14,0,1.99-.49,3.7-1.46,5.12-.97,1.42-2.36,2.51-4.17,3.27-1.8.76-3.95,1.13-6.44,1.13h-12.29v-32.84ZM631.95,79.43h4.04c2.02,0,3.42-.32,4.2-.95.78-.64,1.17-1.58,1.17-2.82s-.46-2.16-1.38-2.71c-.92-.55-2.38-.82-4.37-.82h-3.66v7.3ZM631.95,84.96v8.56h4.54c2.1,0,3.56-.4,4.38-1.21.82-.81,1.24-1.89,1.24-3.26,0-.81-.18-1.52-.54-2.13-.36-.61-.96-1.09-1.81-1.44-.85-.34-2.01-.52-3.49-.52h-4.31Z"/><path class="cls-10" d="M676,99.27l-2.38-7.82h-11.97l-2.38,7.82h-7.5l11.59-32.97h8.51l11.63,32.97h-7.5ZM671.95,85.61l-2.38-7.64c-.15-.51-.35-1.16-.6-1.97-.25-.8-.49-1.62-.74-2.45s-.45-1.55-.6-2.17c-.15.61-.36,1.37-.62,2.28-.26.91-.51,1.76-.75,2.57-.24.81-.41,1.39-.52,1.73l-2.36,7.64h8.56Z"/><path class="cls-10" d="M701.58,71.75c-1.33,0-2.51.26-3.54.77-1.03.52-1.89,1.26-2.58,2.23-.7.97-1.22,2.15-1.58,3.53-.36,1.38-.54,2.93-.54,4.65,0,2.32.29,4.3.86,5.94s1.47,2.89,2.68,3.75c1.21.86,2.78,1.29,4.69,1.29,1.33,0,2.67-.15,4.01-.45,1.34-.3,2.8-.73,4.37-1.28v5.84c-1.45.6-2.88,1.03-4.29,1.29-1.41.26-2.99.39-4.74.39-3.38,0-6.17-.7-8.34-2.1-2.18-1.4-3.79-3.36-4.84-5.88-1.05-2.52-1.57-5.47-1.57-8.84,0-2.49.34-4.76,1.01-6.83s1.66-3.86,2.96-5.37c1.3-1.51,2.91-2.68,4.83-3.5,1.92-.82,4.12-1.24,6.6-1.24,1.63,0,3.27.21,4.91.62,1.64.41,3.21.98,4.71,1.7l-2.25,5.66c-1.23-.58-2.46-1.09-3.71-1.53-1.24-.43-2.46-.65-3.66-.65Z"/><path class="cls-10" d="M743.67,66.43v21.25c0,2.26-.5,4.3-1.49,6.12s-2.5,3.26-4.51,4.32c-2.01,1.06-4.55,1.59-7.6,1.59-4.34,0-7.65-1.11-9.93-3.32-2.28-2.22-3.41-5.15-3.41-8.8v-21.16h6.94v20.1c0,2.71.55,4.61,1.66,5.71,1.11,1.09,2.75,1.64,4.92,1.64,1.53,0,2.77-.26,3.72-.79.95-.52,1.65-1.33,2.1-2.43.45-1.09.67-2.49.67-4.18v-20.06h6.94Z"/><path class="cls-10" d="M771.1,90.15c0,1.95-.47,3.64-1.42,5.08s-2.32,2.55-4.12,3.32c-1.8.78-4,1.17-6.57,1.17-1.14,0-2.25-.08-3.34-.22-1.09-.15-2.13-.37-3.12-.66-1-.29-1.94-.65-2.84-1.09v-6.47c1.56.69,3.17,1.31,4.85,1.86,1.68.55,3.34.83,4.99.83,1.14,0,2.05-.15,2.75-.45.7-.3,1.2-.71,1.52-1.24.31-.52.47-1.12.47-1.8,0-.82-.28-1.53-.83-2.11-.55-.58-1.31-1.13-2.28-1.64-.97-.51-2.06-1.06-3.27-1.64-.76-.36-1.59-.8-2.49-1.31s-1.75-1.15-2.56-1.9c-.81-.75-1.47-1.66-1.99-2.73-.52-1.07-.77-2.35-.77-3.85,0-1.96.45-3.64,1.35-5.03s2.18-2.46,3.85-3.2c1.67-.74,3.64-1.11,5.92-1.11,1.71,0,3.34.2,4.88.6,1.55.4,3.17.97,4.86,1.72l-2.25,5.41c-1.51-.61-2.87-1.09-4.07-1.43s-2.42-.51-3.66-.51c-.87,0-1.61.14-2.22.42-.61.28-1.08.67-1.39,1.17-.31.5-.47,1.08-.47,1.74,0,.78.23,1.43.69,1.97.46.53,1.14,1.04,2.07,1.54.92.49,2.07,1.07,3.45,1.73,1.68.79,3.11,1.62,4.3,2.48,1.19.86,2.11,1.87,2.75,3.03.64,1.16.97,2.6.97,4.32Z"/><path class="cls-10" d="M789,99.27v-32.84h6.96v32.84h-6.96Z"/><path class="cls-10" d="M833.36,99.27h-8.85l-14.29-24.84h-.2c.06,1.03.11,2.07.16,3.12.04,1.05.09,2.09.13,3.13.04,1.04.09,2.09.13,3.13v15.45h-6.22v-32.84h8.78l14.26,24.59h.16c-.03-1.02-.07-2.03-.11-3.03-.04-1-.09-2.01-.12-3.01-.04-1-.07-2.01-.1-3.01v-15.54h6.27v32.84Z"/><path class="cls-10" d="M868.87,82.53c0,3.7-.71,6.79-2.12,9.27-1.42,2.48-3.46,4.34-6.14,5.59-2.68,1.25-5.91,1.88-9.68,1.88h-9.3v-32.84h10.31c3.44,0,6.43.61,8.96,1.83,2.53,1.22,4.49,3.02,5.88,5.41,1.39,2.39,2.09,5.34,2.09,8.86ZM861.64,82.71c0-2.43-.36-4.42-1.07-5.99-.71-1.56-1.76-2.72-3.14-3.47-1.38-.75-3.1-1.12-5.13-1.12h-3.71v21.38h2.99c3.4,0,5.93-.91,7.58-2.72,1.65-1.81,2.48-4.51,2.48-8.09Z"/><path class="cls-10" d="M875.68,99.27v-32.84h6.96v32.84h-6.96Z"/><path class="cls-10" d="M911.01,99.27l-2.38-7.82h-11.97l-2.38,7.82h-7.5l11.59-32.97h8.51l11.63,32.97h-7.5ZM906.96,85.61l-2.38-7.64c-.15-.51-.35-1.16-.59-1.97-.25-.8-.49-1.62-.74-2.45-.25-.83-.45-1.55-.59-2.17-.15.61-.36,1.37-.62,2.28-.26.91-.51,1.76-.75,2.57s-.41,1.39-.52,1.73l-2.36,7.64h8.56Z"/><path class="cls-10" d="M945.08,66.43c4.24,0,7.33.91,9.28,2.73s2.92,4.32,2.92,7.51c0,1.44-.22,2.81-.65,4.12-.43,1.31-1.14,2.47-2.12,3.49-.98,1.02-2.29,1.82-3.92,2.41-1.63.59-3.65.89-6.04.89h-2.99v11.68h-6.96v-32.84h10.49ZM944.72,72.13h-3.17v9.75h2.29c1.3,0,2.43-.17,3.39-.52.96-.34,1.7-.88,2.22-1.62.52-.73.79-1.68.79-2.83,0-1.62-.45-2.82-1.35-3.6s-2.29-1.18-4.18-1.18Z"/><path class="cls-10" d="M989.24,66.43l-11.16,32.84h-7.59l-11.14-32.84h7.03l6.18,19.54c.1.33.28.95.52,1.85.24.91.48,1.86.73,2.88.25,1.01.42,1.85.51,2.5.09-.66.25-1.49.48-2.49.23-1,.46-1.96.7-2.86.23-.91.4-1.53.5-1.88l6.22-19.54h7.03Z"/><path class="cls-10" d="M1006.04,99.27h-6.96v-27.04h-8.92v-5.79h24.8v5.79h-8.92v27.04Z"/><path class="cls-10" d="M1018.5,96.05c0-1.41.39-2.4,1.16-2.96.77-.57,1.7-.85,2.8-.85s1.98.28,2.75.85c.77.57,1.16,1.56,1.16,2.96s-.39,2.32-1.16,2.92c-.77.6-1.69.9-2.75.9s-2.03-.3-2.8-.9c-.77-.6-1.16-1.57-1.16-2.92Z"/><path class="cls-10" d="M1045.08,99.27v-32.84h6.96v27.09h13.32v5.75h-20.28Z"/><path class="cls-10" d="M1083.73,99.27h-6.96v-27.04h-8.92v-5.79h24.8v5.79h-8.92v27.04Z"/><path class="cls-10" d="M1124.95,82.53c0,3.7-.71,6.79-2.12,9.27-1.42,2.48-3.46,4.34-6.14,5.59-2.68,1.25-5.91,1.88-9.68,1.88h-9.3v-32.84h10.31c3.44,0,6.43.61,8.96,1.83,2.53,1.22,4.49,3.02,5.88,5.41,1.39,2.39,2.09,5.34,2.09,8.86ZM1117.71,82.71c0-2.43-.36-4.42-1.07-5.99-.71-1.56-1.76-2.72-3.14-3.47-1.38-.75-3.1-1.12-5.13-1.12h-3.71v21.38h2.99c3.4,0,5.93-.91,7.58-2.72,1.65-1.81,2.48-4.51,2.48-8.09Z"/><path class="cls-10" d="M1130.25,96.05c0-1.41.39-2.4,1.16-2.96.77-.57,1.7-.85,2.8-.85s1.98.28,2.75.85c.77.57,1.16,1.56,1.16,2.96s-.39,2.32-1.16,2.92c-.77.6-1.69.9-2.75.9s-2.03-.3-2.8-.9c-.77-.6-1.16-1.57-1.16-2.92Z"/><path class="cls-9" d="M356.74,153.27l-2.12-6.97h-10.67l-2.12,6.97h-6.69l10.33-29.39h7.59l10.37,29.39h-6.69ZM353.14,141.09l-2.12-6.81c-.13-.45-.31-1.04-.53-1.75-.22-.71-.44-1.44-.66-2.18-.22-.74-.4-1.38-.53-1.93-.13.55-.32,1.22-.55,2.03-.23.81-.46,1.57-.67,2.29-.21.72-.37,1.23-.46,1.54l-2.1,6.81h7.63Z"/><path class="cls-9" d="M393.08,153.27h-7.89l-12.73-22.14h-.18c.05.92.1,1.85.14,2.78.04.94.08,1.87.12,2.79s.08,1.86.12,2.79v13.77h-5.55v-29.27h7.83l12.71,21.92h.14c-.03-.91-.06-1.81-.1-2.7-.04-.89-.08-1.79-.11-2.68s-.06-1.79-.09-2.68v-13.85h5.59v29.27Z"/><path class="cls-9" d="M411.09,153.27v-29.27h6.21v29.27h-6.21Z"/><path class="cls-9" d="M451.23,138.59c0,2.26-.28,4.31-.84,6.16s-1.41,3.44-2.55,4.77c-1.14,1.34-2.59,2.36-4.33,3.07-1.75.71-3.82,1.07-6.21,1.07s-4.46-.36-6.21-1.07c-1.75-.71-3.19-1.74-4.33-3.07-1.14-1.33-1.99-2.93-2.55-4.78-.56-1.85-.84-3.92-.84-6.19,0-3.03.5-5.67,1.49-7.92.99-2.25,2.53-3.99,4.59-5.24,2.07-1.24,4.7-1.86,7.89-1.86s5.79.62,7.84,1.86,3.57,2.99,4.56,5.25c.99,2.26,1.49,4.91,1.49,7.95ZM429.87,138.59c0,2.04.26,3.8.77,5.27.51,1.48,1.32,2.61,2.41,3.4,1.09.79,2.51,1.19,4.24,1.19s3.19-.4,4.28-1.19c1.09-.79,1.89-1.93,2.39-3.4.5-1.47.75-3.23.75-5.27,0-3.07-.57-5.49-1.72-7.25-1.15-1.76-3.04-2.64-5.67-2.64-1.75,0-3.17.4-4.27,1.19-1.1.79-1.91,1.93-2.42,3.4-.51,1.48-.77,3.24-.77,5.3Z"/><path class="cls-9" d="M474.57,145.14c0,1.74-.42,3.24-1.26,4.52s-2.07,2.27-3.67,2.96-3.56,1.04-5.86,1.04c-1.01,0-2.01-.07-2.97-.2-.97-.13-1.9-.33-2.78-.59-.89-.26-1.73-.58-2.53-.97v-5.77c1.39.61,2.83,1.17,4.32,1.66,1.49.49,2.98.74,4.44.74,1.01,0,1.83-.13,2.45-.4.62-.27,1.07-.63,1.35-1.1.28-.47.42-1,.42-1.6,0-.73-.25-1.36-.74-1.88-.49-.52-1.17-1.01-2.03-1.46-.86-.45-1.83-.94-2.91-1.46-.68-.32-1.42-.71-2.22-1.17-.8-.46-1.56-1.02-2.28-1.69s-1.31-1.48-1.77-2.43c-.46-.95-.69-2.1-.69-3.43,0-1.75.4-3.24,1.2-4.48.8-1.24,1.94-2.19,3.43-2.85,1.49-.66,3.25-.99,5.28-.99,1.52,0,2.97.18,4.35.53,1.38.35,2.83.86,4.33,1.53l-2,4.82c-1.35-.55-2.56-.97-3.62-1.27-1.07-.3-2.16-.45-3.26-.45-.77,0-1.44.12-1.98.37-.55.25-.96.59-1.24,1.04s-.42.96-.42,1.55c0,.69.2,1.28.61,1.75s1.02.93,1.84,1.37c.82.44,1.85.95,3.07,1.54,1.49.71,2.77,1.45,3.83,2.21,1.06.77,1.88,1.67,2.45,2.7.57,1.03.86,2.32.86,3.85Z"/><path class="cls-9" d="M508.83,136.49c0,1.68-.12,3.35-.37,5-.25,1.66-.68,3.21-1.29,4.67-.61,1.46-1.48,2.76-2.58,3.88-1.11,1.13-2.52,2.01-4.22,2.65-1.71.64-3.78.96-6.21.96-.57,0-1.25-.02-2.02-.07-.77-.05-1.42-.12-1.92-.21v-4.96c.53.13,1.1.24,1.7.31s1.21.11,1.82.11c2.44,0,4.33-.39,5.66-1.16,1.33-.77,2.26-1.85,2.8-3.22.54-1.38.85-2.96.93-4.76h-.24c-.39.64-.84,1.22-1.37,1.73s-1.2.92-2.01,1.22c-.81.3-1.85.45-3.1.45-1.67,0-3.12-.36-4.35-1.09-1.23-.73-2.19-1.78-2.86-3.16-.67-1.38-1.01-3.05-1.01-5.02,0-2.12.4-3.94,1.21-5.46.81-1.51,1.96-2.68,3.45-3.49,1.49-.81,3.26-1.22,5.29-1.22,1.49,0,2.89.26,4.18.77,1.29.51,2.43,1.3,3.41,2.35.98,1.05,1.75,2.39,2.29,4,.55,1.62.82,3.52.82,5.71ZM498.24,128.62c-1.2,0-2.18.41-2.94,1.24-.76.83-1.14,2.12-1.14,3.88,0,1.42.33,2.54.98,3.36.65.83,1.65,1.24,2.98,1.24.92,0,1.72-.2,2.4-.61.68-.41,1.21-.92,1.59-1.54.38-.62.57-1.26.57-1.91s-.09-1.35-.28-2.02c-.19-.67-.47-1.28-.84-1.82-.37-.55-.84-.99-1.39-1.32-.55-.33-1.2-.5-1.93-.5Z"/><path class="cls-9" d="M532.23,138.63c0,2.36-.18,4.47-.55,6.33-.37,1.86-.95,3.43-1.76,4.72-.81,1.29-1.87,2.28-3.17,2.96-1.31.68-2.9,1.02-4.76,1.02-2.35,0-4.28-.6-5.79-1.79-1.51-1.19-2.62-2.92-3.34-5.17-.72-2.25-1.08-4.94-1.08-8.08s.33-5.87.99-8.12c.66-2.25,1.74-3.97,3.23-5.18,1.49-1.2,3.49-1.8,5.99-1.8,2.34,0,4.26.6,5.78,1.79,1.51,1.2,2.64,2.92,3.37,5.17.73,2.25,1.1,4.96,1.1,8.14ZM517.92,138.63c0,2.23.12,4.09.37,5.58.25,1.49.66,2.61,1.25,3.35.59.75,1.4,1.12,2.44,1.12s1.84-.37,2.43-1.11c.59-.74,1.02-1.86,1.27-3.34.25-1.49.38-3.35.38-5.6s-.13-4.09-.38-5.58c-.25-1.5-.68-2.62-1.27-3.37-.59-.75-1.41-1.13-2.43-1.13s-1.86.38-2.44,1.13c-.59.75-1,1.88-1.25,3.37-.25,1.5-.37,3.36-.37,5.58Z"/><path class="cls-9" d="M555.67,138.63c0,2.36-.18,4.47-.55,6.33-.37,1.86-.95,3.43-1.76,4.72-.81,1.29-1.87,2.28-3.17,2.96-1.31.68-2.9,1.02-4.76,1.02-2.35,0-4.28-.6-5.79-1.79-1.51-1.19-2.62-2.92-3.34-5.17-.72-2.25-1.08-4.94-1.08-8.08s.33-5.87.99-8.12c.66-2.25,1.74-3.97,3.23-5.18,1.49-1.2,3.49-1.8,5.99-1.8,2.34,0,4.26.6,5.78,1.79,1.51,1.2,2.64,2.92,3.37,5.17.73,2.25,1.1,4.96,1.1,8.14ZM541.36,138.63c0,2.23.12,4.09.37,5.58.25,1.49.66,2.61,1.25,3.35.59.75,1.4,1.12,2.44,1.12s1.84-.37,2.43-1.11c.59-.74,1.02-1.86,1.27-3.34.25-1.49.38-3.35.38-5.6s-.13-4.09-.38-5.58c-.25-1.5-.68-2.62-1.27-3.37-.59-.75-1.41-1.13-2.43-1.13s-1.86.38-2.44,1.13c-.59.75-1,1.88-1.25,3.37-.25,1.5-.37,3.36-.37,5.58Z"/><path class="cls-9" d="M574.11,153.27h-6.19v-16.94c0-.47,0-1.04.02-1.73.01-.69.03-1.39.06-2.12.03-.73.05-1.38.08-1.97-.15.17-.44.47-.89.89-.45.42-.86.8-1.25,1.13l-3.36,2.7-2.98-3.72,9.43-7.51h5.08v29.27Z"/><path class="cls-9" d="M582.96,133.87c0-1.25.34-2.14,1.03-2.64.69-.51,1.52-.76,2.49-.76s1.76.25,2.45.76c.69.51,1.03,1.39,1.03,2.64s-.34,2.08-1.03,2.61c-.69.53-1.51.79-2.45.79s-1.81-.26-2.49-.79-1.03-1.4-1.03-2.61ZM582.96,150.4c0-1.25.34-2.13,1.03-2.64.69-.51,1.52-.76,2.49-.76s1.76.25,2.45.76c.69.51,1.03,1.39,1.03,2.64s-.34,2.07-1.03,2.6c-.69.53-1.51.8-2.45.8s-1.81-.27-2.49-.8c-.69-.53-1.03-1.4-1.03-2.6Z"/><path class="cls-9" d="M614.41,153.27h-20.46v-4.3l7.35-7.43c1.48-1.52,2.67-2.79,3.57-3.81.9-1.02,1.55-1.95,1.96-2.79.41-.84.61-1.74.61-2.7,0-1.16-.32-2.03-.97-2.61-.65-.58-1.51-.87-2.59-.87-1.13,0-2.24.26-3.3.78-1.07.52-2.18,1.26-3.34,2.22l-3.36-3.98c.84-.72,1.73-1.4,2.67-2.04.94-.64,2.03-1.16,3.28-1.55,1.25-.39,2.75-.59,4.49-.59,1.92,0,3.57.35,4.96,1.04,1.38.7,2.45,1.64,3.19,2.83.75,1.19,1.12,2.55,1.12,4.05,0,1.62-.32,3.09-.96,4.42s-1.57,2.66-2.79,3.96c-1.22,1.31-2.69,2.76-4.41,4.34l-3.76,3.54v.28h12.75v5.21Z"/><path class="cls-9" d="M637.69,138.63c0,2.36-.18,4.47-.55,6.33-.37,1.86-.95,3.43-1.76,4.72-.81,1.29-1.86,2.28-3.17,2.96-1.31.68-2.9,1.02-4.76,1.02-2.35,0-4.28-.6-5.79-1.79-1.51-1.19-2.62-2.92-3.34-5.17-.72-2.25-1.08-4.94-1.08-8.08s.33-5.87.99-8.12c.66-2.25,1.74-3.97,3.23-5.18,1.49-1.2,3.49-1.8,5.99-1.8,2.34,0,4.26.6,5.78,1.79,1.52,1.2,2.64,2.92,3.37,5.17.73,2.25,1.1,4.96,1.1,8.14ZM623.38,138.63c0,2.23.12,4.09.37,5.58.25,1.49.66,2.61,1.25,3.35.59.75,1.4,1.12,2.44,1.12s1.84-.37,2.43-1.11c.59-.74,1.02-1.86,1.27-3.34.25-1.49.38-3.35.38-5.6s-.13-4.09-.38-5.58c-.25-1.5-.68-2.62-1.27-3.37-.59-.75-1.41-1.13-2.43-1.13s-1.86.38-2.44,1.13c-.59.75-1,1.88-1.25,3.37-.25,1.5-.37,3.36-.37,5.58Z"/><path class="cls-9" d="M656.13,153.27h-6.19v-16.94c0-.47,0-1.04.02-1.73.01-.69.03-1.39.06-2.12.03-.73.05-1.38.08-1.97-.15.17-.44.47-.89.89-.45.42-.86.8-1.25,1.13l-3.36,2.7-2.98-3.72,9.43-7.51h5.08v29.27Z"/><path class="cls-9" d="M674.93,134.57c1.79,0,3.38.34,4.77,1.02,1.39.68,2.49,1.68,3.29,3,.8,1.32,1.2,2.95,1.2,4.88,0,2.11-.44,3.93-1.31,5.46-.88,1.53-2.18,2.7-3.9,3.51s-3.88,1.22-6.46,1.22c-1.54,0-2.98-.13-4.33-.39-1.36-.26-2.54-.66-3.55-1.19v-5.34c1.01.53,2.23.98,3.65,1.35,1.42.37,2.76.55,4.01.55s2.26-.16,3.1-.49c.84-.33,1.48-.83,1.91-1.52.43-.69.65-1.56.65-2.63,0-1.43-.48-2.52-1.44-3.28-.96-.76-2.44-1.14-4.42-1.14-.76,0-1.55.07-2.37.22-.82.15-1.5.29-2.05.44l-2.46-1.32,1.1-14.92h15.88v5.25h-10.45l-.54,5.75c.45-.09.95-.19,1.48-.28.53-.09,1.28-.14,2.24-.14Z"/><path class="cls-9" d="M712.85,128.74c-1.19,0-2.24.23-3.15.69-.92.46-1.68,1.12-2.3,1.99-.62.87-1.09,1.92-1.41,3.14s-.48,2.61-.48,4.14c0,2.07.26,3.83.77,5.3.51,1.46,1.31,2.58,2.39,3.34s2.48,1.15,4.18,1.15c1.19,0,2.38-.13,3.57-.4,1.19-.27,2.49-.65,3.89-1.14v5.21c-1.29.54-2.57.92-3.82,1.15-1.25.23-2.66.35-4.22.35-3.02,0-5.5-.62-7.44-1.87-1.94-1.25-3.38-3-4.31-5.25-.93-2.25-1.4-4.88-1.4-7.88,0-2.22.3-4.24.9-6.09s1.48-3.44,2.64-4.79,2.6-2.39,4.3-3.12c1.71-.73,3.67-1.1,5.88-1.1,1.46,0,2.91.18,4.38.55,1.46.37,2.86.87,4.19,1.51l-2,5.04c-1.09-.52-2.2-.97-3.3-1.36-1.11-.39-2.2-.58-3.26-.58Z"/><path class="cls-9" d="M743.4,153.27h-16.86v-29.27h16.86v5.08h-10.65v6.43h9.91v5.09h-9.91v7.55h10.65v5.12Z"/><path class="cls-9" d="M758.03,124c2.66,0,4.85.32,6.58.96s3.01,1.61,3.85,2.9c.84,1.29,1.26,2.93,1.26,4.9,0,1.33-.25,2.5-.76,3.5-.51,1-1.17,1.85-2,2.54-.83.69-1.72,1.26-2.68,1.7l8.61,12.75h-6.89l-6.99-11.23h-3.3v11.23h-6.21v-29.27h8.53ZM757.59,129.08h-1.88v7.91h2c2.05,0,3.53-.34,4.41-1.03s1.33-1.7,1.33-3.03-.48-2.38-1.43-2.96c-.96-.59-2.43-.88-4.43-.88Z"/><path class="cls-9" d="M787.86,153.27h-6.21v-24.1h-7.95v-5.17h22.1v5.17h-7.95v24.1Z"/><path class="cls-9" d="M800.31,153.27v-29.27h6.21v29.27h-6.21Z"/><path class="cls-9" d="M819.99,153.27h-6.11v-29.27h16.78v5.08h-10.67v7.55h9.93v5.07h-9.93v11.57Z"/><path class="cls-9" d="M836.39,153.27v-29.27h6.21v29.27h-6.21Z"/><path class="cls-9" d="M866.82,153.27h-16.86v-29.27h16.86v5.08h-10.65v6.43h9.91v5.09h-9.91v7.55h10.65v5.12Z"/><path class="cls-9" d="M897.21,138.35c0,3.3-.63,6.05-1.89,8.26-1.26,2.21-3.09,3.87-5.48,4.98-2.39,1.12-5.26,1.67-8.63,1.67h-8.29v-29.27h9.19c3.07,0,5.73.54,7.99,1.63,2.25,1.09,4,2.7,5.25,4.82s1.86,4.76,1.86,7.9ZM890.76,138.51c0-2.16-.32-3.94-.95-5.34-.63-1.39-1.57-2.43-2.8-3.09-1.24-.67-2.76-1-4.57-1h-3.3v19.06h2.66c3.03,0,5.28-.81,6.76-2.42s2.21-4.02,2.21-7.21Z"/><path class="cls-9" d="M926.36,128.74c-1.19,0-2.24.23-3.15.69-.92.46-1.68,1.12-2.3,1.99-.62.87-1.09,1.92-1.41,3.14s-.48,2.61-.48,4.14c0,2.07.26,3.83.77,5.3.51,1.46,1.31,2.58,2.39,3.34s2.48,1.15,4.18,1.15c1.19,0,2.38-.13,3.57-.4,1.19-.27,2.49-.65,3.89-1.14v5.21c-1.29.54-2.57.92-3.82,1.15-1.25.23-2.66.35-4.22.35-3.02,0-5.5-.62-7.44-1.87-1.94-1.25-3.38-3-4.31-5.25-.93-2.25-1.4-4.88-1.4-7.88,0-2.22.3-4.24.9-6.09s1.48-3.44,2.64-4.79,2.6-2.39,4.3-3.12c1.71-.73,3.67-1.1,5.88-1.1,1.46,0,2.91.18,4.38.55,1.46.37,2.86.87,4.19,1.51l-2,5.04c-1.09-.52-2.2-.97-3.3-1.36-1.11-.39-2.2-.58-3.26-.58Z"/><path class="cls-9" d="M966.62,138.59c0,2.26-.28,4.31-.84,6.16s-1.41,3.44-2.55,4.77c-1.14,1.34-2.59,2.36-4.33,3.07-1.75.71-3.82,1.07-6.21,1.07s-4.46-.36-6.21-1.07c-1.75-.71-3.19-1.74-4.33-3.07-1.14-1.33-1.99-2.93-2.55-4.78-.56-1.85-.84-3.92-.84-6.19,0-3.03.5-5.67,1.49-7.92.99-2.25,2.53-3.99,4.59-5.24,2.07-1.24,4.7-1.86,7.89-1.86s5.79.62,7.84,1.86,3.57,2.99,4.56,5.25c.99,2.26,1.49,4.91,1.49,7.95ZM945.25,138.59c0,2.04.26,3.8.77,5.27.51,1.48,1.32,2.61,2.41,3.4,1.09.79,2.51,1.19,4.24,1.19s3.19-.4,4.28-1.19c1.09-.79,1.89-1.93,2.39-3.4.5-1.47.75-3.23.75-5.27,0-3.07-.57-5.49-1.72-7.25-1.15-1.76-3.04-2.64-5.67-2.64-1.75,0-3.17.4-4.27,1.19-1.1.79-1.91,1.93-2.42,3.4-.51,1.48-.77,3.24-.77,5.3Z"/><path class="cls-9" d="M985.07,153.27l-7.05-22.96h-.18c.03.55.07,1.37.13,2.47.06,1.1.12,2.27.17,3.51.05,1.24.08,2.36.08,3.36v13.61h-5.54v-29.27h8.45l6.93,22.38h.12l7.35-22.38h8.45v29.27h-5.79v-13.85c0-.92.02-1.98.05-3.18s.08-2.34.13-3.43c.05-1.09.09-1.91.12-2.45h-.18l-7.55,22.92h-5.69Z"/><path class="cls-9" d="M1020.69,124c3.78,0,6.53.81,8.27,2.43,1.73,1.62,2.6,3.85,2.6,6.7,0,1.28-.19,2.51-.58,3.67-.39,1.17-1.02,2.21-1.89,3.11-.87.91-2.04,1.62-3.49,2.15-1.46.53-3.25.79-5.38.79h-2.66v10.41h-6.21v-29.27h9.35ZM1020.37,129.08h-2.82v8.69h2.04c1.16,0,2.17-.15,3.02-.46.85-.31,1.51-.79,1.98-1.44.47-.65.7-1.5.7-2.52,0-1.44-.4-2.51-1.2-3.21-.8-.7-2.04-1.05-3.72-1.05Z"/><path class="cls-9" d="M1055,153.27l-2.12-6.97h-10.67l-2.12,6.97h-6.69l10.33-29.39h7.59l10.37,29.39h-6.69ZM1051.4,141.09l-2.12-6.81c-.13-.45-.31-1.04-.53-1.75-.22-.71-.44-1.44-.66-2.18-.22-.74-.4-1.38-.53-1.93-.13.55-.32,1.22-.55,2.03-.23.81-.46,1.57-.67,2.29-.21.72-.37,1.23-.46,1.54l-2.1,6.81h7.63Z"/><path class="cls-9" d="M1091.34,153.27h-7.89l-12.73-22.14h-.18c.05.92.1,1.85.14,2.78.04.94.08,1.87.12,2.79.04.93.08,1.86.12,2.79v13.77h-5.54v-29.27h7.83l12.71,21.92h.14c-.03-.91-.06-1.81-.1-2.7-.04-.89-.08-1.79-.11-2.68s-.06-1.79-.09-2.68v-13.85h5.58v29.27Z"/><path class="cls-9" d="M1107.81,136.05l6.11-12.05h6.69l-9.71,17.88v11.39h-6.17v-11.19l-9.71-18.08h6.73l6.07,12.05Z"/></svg>