<?xml version="1.0" encoding="UTF-8"?><svg id="Layer_1" xmlns="http://www.w3.org/2000/svg" viewBox="0 0 326.63 229.63"><defs><style>.cls-1{fill:#01366c;}.cls-2,.cls-3,.cls-4{fill:none;stroke-width:2px;}.cls-2,.cls-3,.cls-4,.cls-5,.cls-6,.cls-7{stroke-miterlimit:10;}.cls-2,.cls-5{stroke:#e3000f;}.cls-3,.cls-6{stroke:#016c37;}.cls-4,.cls-7{stroke:#f9b802;}.cls-5,.cls-8{fill:#e3000f;}.cls-5,.cls-6,.cls-7{stroke-width:.25px;}.cls-6{fill:#016c37;}.cls-7{fill:#f9b802;}</style></defs><path class="cls-8" d="M41.72,193.13v-16.59h3.69v16.59h-3.69ZM44.54,179.71v-3.17h8.67v3.17h-8.67ZM44.54,186.62v-3.17h8.3v3.17h-8.3Z"/><path class="cls-8" d="M63.32,193.41c-1.25,0-2.41-.22-3.47-.66s-1.99-1.05-2.78-1.83c-.8-.78-1.42-1.7-1.86-2.74-.44-1.04-.66-2.17-.66-3.37s.22-2.35.66-3.38c.44-1.03,1.05-1.94,1.83-2.71.78-.78,1.7-1.38,2.76-1.81,1.06-.43,2.21-.65,3.47-.65s2.39.22,3.44.65c1.06.43,1.98,1.03,2.77,1.81s1.41,1.68,1.84,2.73c.44,1.04.66,2.17.66,3.4s-.22,2.33-.66,3.37-1.05,1.95-1.83,2.73c-.78.78-1.7,1.38-2.76,1.82-1.06.44-2.2.66-3.42.66ZM63.27,190.05c.99,0,1.85-.22,2.6-.66.74-.44,1.32-1.05,1.73-1.84.41-.79.61-1.7.61-2.74,0-.78-.12-1.49-.35-2.13-.24-.63-.57-1.18-1.01-1.65-.44-.46-.96-.81-1.56-1.06-.6-.24-1.27-.36-2.01-.36-.99,0-1.85.22-2.6.65-.74.43-1.32,1.03-1.73,1.81-.41.78-.61,1.69-.61,2.74,0,.78.12,1.5.35,2.14.23.64.57,1.2,1,1.66.43.46.95.82,1.56,1.07.61.25,1.28.38,2.02.38Z"/><path class="cls-8" d="M74.34,193.13v-16.59h3.69v16.59h-3.69ZM77.16,186.29v-2.73h3.5c.74,0,1.3-.19,1.7-.56.4-.38.6-.88.6-1.53,0-.6-.2-1.09-.59-1.48-.39-.39-.96-.59-1.69-.59h-3.52v-2.87h3.95c1.1,0,2.06.21,2.89.62s1.48.99,1.95,1.73c.47.74.71,1.58.71,2.54s-.24,1.82-.71,2.55c-.47.73-1.13,1.3-1.97,1.7-.85.41-1.84.61-2.98.61h-3.83ZM83.36,193.13l-5.17-7.14,3.38-.92,6.16,8.06h-4.37Z"/><path class="cls-8" d="M101.15,193.13l6.58-16.59h3.34l6.51,16.59h-3.9l-4.98-13.77h1.34l-5.05,13.77h-3.83ZM104.89,190.12v-3.01h9.05v3.01h-9.05Z"/><path class="cls-8" d="M132.26,193.13v-16.59h3.64v16.59h-3.64ZM135.08,193.13v-2.87h3.9c.72,0,1.28-.21,1.69-.63s.61-.94.61-1.55c0-.42-.09-.8-.28-1.13-.19-.33-.45-.59-.79-.78-.34-.19-.75-.28-1.23-.28h-3.9v-2.8h3.6c.61,0,1.1-.15,1.48-.46s.56-.77.56-1.4-.19-1.07-.56-1.38-.87-.46-1.48-.46h-3.6v-2.87h4.3c1.07,0,1.97.2,2.71.59s1.31.92,1.7,1.57.59,1.39.59,2.19c0,1.02-.33,1.88-.99,2.58-.66.71-1.63,1.19-2.91,1.46l.09-1.25c1.39.27,2.47.81,3.23,1.62.76.81,1.14,1.82,1.14,3.01,0,.91-.22,1.73-.67,2.46s-1.09,1.3-1.93,1.73c-.84.42-1.84.63-3.02.63h-4.25Z"/><path class="cls-8" d="M147.33,193.13v-16.59h3.69v16.59h-3.69ZM150.15,186.29v-2.73h3.5c.74,0,1.3-.19,1.7-.56s.6-.88.6-1.53c0-.6-.2-1.09-.59-1.48-.39-.39-.96-.59-1.69-.59h-3.53v-2.87h3.95c1.1,0,2.06.21,2.89.62.83.42,1.48.99,1.95,1.73.47.74.71,1.58.71,2.54s-.24,1.82-.71,2.55-1.13,1.3-1.97,1.7c-.85.41-1.84.61-2.99.61h-3.83ZM156.35,193.13l-5.17-7.14,3.38-.92,6.16,8.06h-4.37Z"/><path class="cls-8" d="M162.32,193.13v-16.59h3.69v16.59h-3.69Z"/><path class="cls-8" d="M177.03,193.39c-1.21,0-2.34-.22-3.4-.66-1.06-.44-1.98-1.05-2.76-1.82s-1.4-1.68-1.84-2.73-.67-2.17-.67-3.37.23-2.33.68-3.36c.45-1.03,1.08-1.94,1.89-2.71s1.75-1.38,2.83-1.81c1.08-.43,2.24-.65,3.48-.65,1.43,0,2.72.26,3.89.78,1.17.52,2.13,1.23,2.9,2.14l-2.51,2.51c-.53-.69-1.16-1.21-1.88-1.55-.72-.34-1.54-.52-2.44-.52-.97,0-1.84.21-2.61.65-.77.43-1.37,1.03-1.8,1.81s-.65,1.68-.65,2.71.21,1.94.63,2.73,1,1.39,1.74,1.83,1.58.66,2.54.66,1.8-.18,2.48-.55c.68-.37,1.21-.9,1.58-1.6s.55-1.55.55-2.55l2.44,1.64-7.4-.12v-3.12h8.72v.54c0,1.99-.36,3.66-1.07,5.02-.71,1.36-1.7,2.38-2.96,3.07-1.26.69-2.71,1.03-4.36,1.03Z"/><path class="cls-8" d="M187.65,193.13v-16.59h3.69v16.59h-3.69ZM189.86,186.19v-3.2h9.28v3.2h-9.28ZM197.92,193.13v-16.59h3.71v16.59h-3.71Z"/><path class="cls-8" d="M203.68,179.76v-3.22h14.08v3.22h-14.08ZM208.87,193.13v-16.36h3.69v16.36h-3.69Z"/><path class="cls-8" d="M232.84,193.13v-16.59h3.69v16.59h-3.69ZM235.66,179.71v-3.17h8.67v3.17h-8.67ZM235.66,186.62v-3.17h8.3v3.17h-8.3Z"/><path class="cls-8" d="M253.38,193.39c-1.36,0-2.57-.29-3.61-.87-1.04-.58-1.86-1.38-2.44-2.41s-.88-2.2-.88-3.51v-10.06h3.71v10.27c0,.66.14,1.23.42,1.72s.67.86,1.16,1.12c.49.26,1.04.39,1.63.39.63,0,1.17-.13,1.64-.39.47-.26.84-.63,1.12-1.1s.41-1.05.41-1.7v-10.29h3.71v10.08c0,1.32-.29,2.48-.87,3.5-.58,1.02-1.39,1.82-2.42,2.4-1.03.58-2.23.87-3.59.87Z"/><path class="cls-8" d="M261.98,179.76v-3.22h14.08v3.22h-14.08ZM267.17,193.13v-16.36h3.69v16.36h-3.69Z"/><path class="cls-8" d="M284.71,193.39c-1.36,0-2.57-.29-3.61-.87-1.04-.58-1.86-1.38-2.44-2.41s-.88-2.2-.88-3.51v-10.06h3.71v10.27c0,.66.14,1.23.42,1.72s.67.86,1.16,1.12c.49.26,1.04.39,1.63.39.63,0,1.17-.13,1.64-.39.47-.26.84-.63,1.12-1.1s.41-1.05.41-1.7v-10.29h3.71v10.08c0,1.32-.29,2.48-.87,3.5-.58,1.02-1.39,1.82-2.42,2.4-1.03.58-2.23.87-3.59.87Z"/><path class="cls-8" d="M294.53,193.13v-16.59h3.69v16.59h-3.69ZM297.35,186.29v-2.73h3.5c.74,0,1.3-.19,1.7-.56s.6-.88.6-1.53c0-.6-.2-1.09-.59-1.48-.39-.39-.96-.59-1.69-.59h-3.53v-2.87h3.95c1.1,0,2.06.21,2.89.62.83.42,1.48.99,1.95,1.73.47.74.71,1.58.71,2.54s-.24,1.82-.71,2.55-1.13,1.3-1.97,1.7c-.85.41-1.84.61-2.99.61h-3.83ZM303.55,193.13l-5.17-7.14,3.38-.92,6.16,8.06h-4.37Z"/><path class="cls-8" d="M309.52,193.13v-16.59h3.69v16.59h-3.69ZM312.34,179.71v-3.17h8.98v3.17h-8.98ZM312.34,186.19v-3.08h8.27v3.08h-8.27ZM312.34,193.13v-3.2h9.09v3.2h-9.09Z"/><path class="cls-1" d="M40.15,27.72h14.14v141.5h-14.14V27.72Z"/><path class="cls-1" d="M84.02,27.72h28.18c16.16,0,27.06.71,32.71,2.12,8.08,1.99,14.68,6.08,19.82,12.26,5.13,6.19,7.69,13.96,7.69,23.33s-2.5,17.2-7.5,23.33c-5,6.12-11.9,10.24-20.68,12.36-6.41,1.54-18.41,2.31-35.98,2.31h-10.1v65.79h-14.14V27.72ZM98.16,41.58v48l23.95.29c9.68,0,16.77-.88,21.26-2.64,4.49-1.76,8.02-4.61,10.58-8.54,2.56-3.94,3.85-8.34,3.85-13.2s-1.28-9.07-3.85-13.01c-2.57-3.94-5.95-6.74-10.15-8.4-4.2-1.66-11.08-2.5-20.63-2.5h-25.01Z"/><path class="cls-1" d="M255.93,27.72l65.99,141.5h-15.27l-22.25-46.56h-60.96l-22.04,46.56h-15.78L252.46,27.72h3.46ZM254.14,57.79l-24.25,51.22h48.38l-24.13-51.22Z"/><line class="cls-3" x1="6.46" y1="138.51" x2="119.63" y2="138.51"/><circle class="cls-6" cx="118.62" cy="138.51" r="12.5"/><circle class="cls-6" cx="68.62" cy="138.51" r="12.5"/><circle class="cls-6" cx="12.62" cy="138.51" r="12.5"/><line class="cls-2" x1="140.12" y1="115.62" x2="252.62" y2="115.62"/><circle class="cls-5" cx="193.62" cy="115.62" r="12.5"/><circle class="cls-5" cx="259.62" cy="115.62" r="12.5"/><circle class="cls-5" cx="141.62" cy="115.62" r="12.5"/><circle class="cls-7" cx="201.63" cy="66.51" r="12.5"/><circle class="cls-7" cx="126.63" cy="66.51" r="12.5"/><circle class="cls-7" cx="67.12" cy="66.51" r="12.5"/><line class="cls-4" x1="64.63" y1="66.51" x2="201.57" y2="66.51"/></svg>